<svg width="1153" height="413" viewBox="0 0 1153 413" fill="none" xmlns="http://www.w3.org/2000/svg">
<path d="M423.605 71.9495C423.17 71.9495 422.953 71.741 422.953 71.324L423.605 65.877C423.674 65.4947 423.9 65.2862 424.282 65.2515C426.993 64.9735 428.782 64.5478 429.651 63.9744C430.52 63.3837 430.954 62.2196 430.954 60.4821C430.954 58.7446 430.511 56.4859 429.625 53.7059C428.739 50.9085 428.166 49.0494 427.905 48.1285C427.071 45.1748 426.654 42.7597 426.654 40.8832C426.654 38.9893 426.958 37.3735 427.566 36.0356C428.174 34.6977 429.043 33.6292 430.172 32.8299C432.362 31.3009 435.307 30.5364 439.008 30.5364C439.477 30.5364 439.711 30.7536 439.711 31.188L439.008 36.5829C438.938 37.0173 438.721 37.2518 438.356 37.2866C434.985 37.5124 433.3 38.5115 433.3 40.2837C433.3 41.917 434.012 45.1313 435.437 49.9268C436.879 54.7049 437.6 58.1278 437.6 60.1954C437.6 68.0315 432.935 71.9495 423.605 71.9495ZM484.937 71.9495C482.018 71.9495 479.811 71.0808 478.317 69.3433C476.823 67.6058 476.076 65.4339 476.076 62.8277C476.076 56.1905 476.744 49.6315 478.082 43.1506C479.142 38.0598 480.61 34.6543 482.487 32.9342C484.259 31.3357 486.596 30.5364 489.498 30.5364C492.417 30.5364 494.623 31.4139 496.118 33.1687C497.629 34.9236 498.385 37.0868 498.385 39.6583C498.385 42.2124 498.22 45.3138 497.89 48.9625C497.56 52.5939 497.151 55.6345 496.665 58.0843C496.178 60.5168 495.761 62.2978 495.414 63.4271C495.084 64.5391 494.623 65.6685 494.033 66.8152C493.442 67.962 492.755 68.8829 491.974 69.5779C490.219 71.159 487.873 71.9495 484.937 71.9495ZM485.614 65.7988C487.821 65.7988 489.237 63.7659 489.863 59.7002C490.28 57.0071 490.697 53.6537 491.114 49.6401C491.531 45.6265 491.739 42.8031 491.739 41.1699C491.739 39.5366 491.47 38.3812 490.931 37.7036C490.41 37.026 489.663 36.6871 488.69 36.6871C486.674 36.6871 485.31 38.7287 484.598 42.8118C484.181 45.2095 483.764 48.4673 483.347 52.5852C482.93 56.6857 482.721 59.5786 482.721 61.264C482.721 62.9493 482.991 64.1308 483.529 64.8084C484.085 65.4687 484.78 65.7988 485.614 65.7988ZM546.295 31.5789L543.298 58.2928C543.054 60.3431 542.933 61.8026 542.933 62.6713C542.933 63.5401 543.176 64.2785 543.663 64.8866C544.149 65.4947 544.94 65.7988 546.034 65.7988C547.129 65.7988 547.963 65.2515 548.536 64.1569C549.11 63.0623 549.535 61.3074 549.813 58.8923L552.863 31.7353C552.915 31.353 553.149 31.1532 553.566 31.1359L558.831 30.9274C559.265 30.9447 559.482 31.1532 559.482 31.5529L556.485 58.2928C555.877 63.7659 554.47 67.5102 552.263 69.5257C550.474 71.1416 548.137 71.9495 545.252 71.9495C542.386 71.9495 540.188 71.2024 538.659 69.7082C537.147 68.1965 536.391 65.9726 536.391 63.0362C536.391 61.6288 536.478 60.1607 536.652 58.6317L539.727 31.7353C539.762 31.5094 539.814 31.3617 539.884 31.2922C539.97 31.2054 540.135 31.1532 540.379 31.1359L545.643 30.9534C546.078 30.9708 546.295 31.1793 546.295 31.5789ZM597.958 31.2401L614.846 30.6407C615.246 30.658 615.446 30.8752 615.446 31.2922L614.768 36.635C614.733 36.8956 614.672 37.0781 614.586 37.1823C614.516 37.2866 614.36 37.3474 614.116 37.3648L609.06 37.5472L605.255 70.8288C605.203 71.2458 604.977 71.463 604.578 71.4804L599.157 71.6628C598.809 71.6628 598.635 71.4978 598.635 71.1677L602.467 37.7557L597.28 37.9121C596.846 37.8947 596.629 37.6949 596.629 37.3126L597.28 31.8917C597.298 31.4747 597.523 31.2575 597.958 31.2401ZM672.947 31.5529L668.49 70.8288C668.42 71.2285 668.203 71.4457 667.838 71.4804L662.469 71.6628C662.087 71.6628 661.896 71.4978 661.896 71.1677L663.825 54.0447L657.205 54.2792L655.328 70.8288C655.276 71.2458 655.05 71.463 654.651 71.4804L649.282 71.6628C648.9 71.6628 648.709 71.4978 648.709 71.1677L653.191 31.7353C653.261 31.3704 653.487 31.1706 653.869 31.1359L659.107 30.9274C659.559 30.9447 659.785 31.1532 659.785 31.5529L657.882 48.1546L664.528 47.92L666.353 31.7353C666.405 31.353 666.639 31.1532 667.056 31.1359L672.269 30.9274C672.721 30.9447 672.947 31.1532 672.947 31.5529ZM725.574 53.7319L717.468 54.0447L716.243 64.7303L726.225 64.3914C726.677 64.4088 726.903 64.6347 726.903 65.0691L726.225 70.464C726.191 70.8288 725.965 71.0547 725.548 71.1416L709.519 71.6628C709.137 71.6628 708.946 71.4978 708.946 71.1677L713.455 31.7353C713.524 31.3704 713.75 31.1706 714.132 31.1359L728.415 30.6407C728.849 30.6928 729.066 30.9274 729.066 31.3444L728.415 36.7393C728.362 37.1736 728.137 37.4082 727.737 37.4429L719.345 37.6775L718.224 47.3727L726.251 47.086C726.703 47.1034 726.929 47.3293 726.929 47.7636L726.251 53.0804C726.182 53.48 725.956 53.6972 725.574 53.7319ZM781.485 31.5529L784.534 70.8028C784.534 71.2024 784.308 71.4196 783.857 71.4543L778.409 71.6628C778.045 71.6628 777.862 71.4978 777.862 71.1677L777.471 62.5671L771.555 62.8016L769.6 70.8288C769.548 71.0721 769.479 71.2372 769.392 71.324C769.305 71.4109 769.149 71.463 768.923 71.4804L763.528 71.6628C763.18 71.6628 763.007 71.4978 763.007 71.1677L774.448 31.7353C774.57 31.353 774.804 31.1532 775.152 31.1359L780.885 30.9274C781.25 30.9447 781.45 31.1532 781.485 31.5529ZM776.559 42.2906L772.91 57.2504L777.237 57.094L776.559 42.2906ZM822.228 71.9495C821.793 71.9495 821.576 71.741 821.576 71.324L822.228 65.877C822.297 65.4947 822.523 65.2862 822.905 65.2515C825.616 64.9735 827.405 64.5478 828.274 63.9744C829.143 63.3837 829.577 62.2196 829.577 60.4821C829.577 58.7446 829.134 56.4859 828.248 53.7059C827.362 50.9085 826.789 49.0494 826.528 48.1285C825.694 45.1748 825.277 42.7597 825.277 40.8832C825.277 38.9893 825.581 37.3735 826.189 36.0356C826.797 34.6977 827.666 33.6292 828.795 32.8299C830.985 31.3009 833.93 30.5364 837.63 30.5364C838.1 30.5364 838.334 30.7536 838.334 31.188L837.63 36.5829C837.561 37.0173 837.344 37.2518 836.979 37.2866C833.608 37.5124 831.923 38.5115 831.923 40.2837C831.923 41.917 832.635 45.1313 834.06 49.9268C835.502 54.7049 836.223 58.1278 836.223 60.1954C836.223 68.0315 831.558 71.9495 822.228 71.9495ZM876.419 31.2401L893.307 30.6407C893.707 30.658 893.906 30.8752 893.906 31.2922L893.229 36.635C893.194 36.8956 893.133 37.0781 893.046 37.1823C892.977 37.2866 892.821 37.3474 892.577 37.3648L887.521 37.5472L883.716 70.8288C883.664 71.2458 883.438 71.463 883.038 71.4804L877.617 71.6628C877.27 71.6628 877.096 71.4978 877.096 71.1677L880.927 37.7557L875.741 37.9121C875.307 37.8947 875.089 37.6949 875.089 37.3126L875.741 31.8917C875.758 31.4747 875.984 31.2575 876.419 31.2401Z" fill="white"/>
<path d="M413.572 368.249C413.31 368.249 413.179 368.123 413.179 367.871L413.572 364.581C413.614 364.351 413.751 364.225 413.981 364.204C415.618 364.036 416.699 363.779 417.224 363.432C417.749 363.076 418.011 362.373 418.011 361.323C418.011 360.274 417.743 358.91 417.208 357.231C416.673 355.542 416.327 354.419 416.169 353.863C415.666 352.079 415.414 350.62 415.414 349.487C415.414 348.343 415.597 347.367 415.965 346.559C416.332 345.751 416.857 345.106 417.539 344.623C418.861 343.7 420.639 343.238 422.874 343.238C423.158 343.238 423.299 343.369 423.299 343.632L422.874 346.89C422.832 347.152 422.701 347.294 422.481 347.315C420.445 347.451 419.427 348.055 419.427 349.125C419.427 350.111 419.858 352.053 420.718 354.949C421.589 357.834 422.025 359.901 422.025 361.15C422.025 365.883 419.207 368.249 413.572 368.249ZM451.51 343.868L449.7 360.001C449.553 361.239 449.479 362.121 449.479 362.645C449.479 363.17 449.626 363.616 449.92 363.983C450.214 364.351 450.691 364.534 451.352 364.534C452.013 364.534 452.517 364.204 452.863 363.543C453.21 362.882 453.467 361.822 453.634 360.363L455.476 343.962C455.508 343.731 455.649 343.611 455.901 343.6L459.08 343.474C459.343 343.485 459.474 343.611 459.474 343.852L457.664 360.001C457.297 363.306 456.447 365.568 455.114 366.785C454.033 367.761 452.622 368.249 450.88 368.249C449.149 368.249 447.821 367.798 446.898 366.895C445.985 365.982 445.528 364.639 445.528 362.866C445.528 362.016 445.581 361.129 445.686 360.206L447.543 343.962C447.564 343.826 447.596 343.737 447.638 343.695C447.69 343.642 447.79 343.611 447.937 343.6L451.116 343.49C451.378 343.501 451.51 343.626 451.51 343.868ZM495.003 348.432C495.003 351.559 493.796 353.716 491.383 354.901C492.201 355.248 492.842 355.783 493.303 356.507C493.765 357.22 493.996 358.139 493.996 359.261C493.996 360.384 493.828 361.449 493.492 362.457C493.167 363.464 492.658 364.377 491.965 365.195C490.496 366.937 488.162 367.861 484.961 367.965L481.577 368.076C481.346 368.055 481.231 367.955 481.231 367.777L483.938 344.088C483.959 343.899 484.006 343.773 484.08 343.71C484.153 343.637 484.809 343.558 486.047 343.474C487.285 343.38 488.466 343.333 489.589 343.333C491.477 343.333 492.852 343.789 493.712 344.702C494.573 345.604 495.003 346.848 495.003 348.432ZM487.338 356.46C486.908 356.46 486.624 356.465 486.488 356.475L485.638 364.141C487.138 364.141 488.272 363.663 489.038 362.708C489.814 361.753 490.202 360.5 490.202 358.947C490.202 358.212 489.951 357.614 489.447 357.152C488.943 356.691 488.24 356.46 487.338 356.46ZM486.755 353.973C489.767 353.952 491.273 352.357 491.273 349.188C491.273 347.519 490.412 346.685 488.691 346.685C488.209 346.685 487.831 346.701 487.558 346.732L486.755 353.973ZM548.889 368.249C547.126 368.249 545.794 367.724 544.891 366.675C543.989 365.625 543.538 364.314 543.538 362.74C543.538 358.731 543.942 354.77 544.75 350.856C545.39 347.782 546.277 345.725 547.41 344.686C548.48 343.721 549.891 343.238 551.644 343.238C553.407 343.238 554.739 343.768 555.642 344.828C556.555 345.888 557.011 347.194 557.011 348.747C557.011 350.29 556.911 352.163 556.712 354.366C556.513 356.559 556.266 358.396 555.972 359.875C555.678 361.344 555.427 362.42 555.217 363.102C555.017 363.773 554.739 364.455 554.383 365.148C554.026 365.841 553.611 366.397 553.139 366.816C552.079 367.771 550.663 368.249 548.889 368.249ZM549.299 364.534C550.631 364.534 551.486 363.306 551.864 360.851C552.116 359.225 552.368 357.199 552.62 354.776C552.872 352.352 552.997 350.646 552.997 349.66C552.997 348.674 552.835 347.976 552.509 347.567C552.195 347.157 551.743 346.953 551.156 346.953C549.939 346.953 549.115 348.186 548.685 350.652C548.433 352.1 548.181 354.067 547.929 356.554C547.677 359.031 547.551 360.778 547.551 361.795C547.551 362.813 547.714 363.527 548.039 363.936C548.375 364.335 548.795 364.534 549.299 364.534ZM594.272 343.805L591.564 367.509C591.522 367.75 591.386 367.882 591.155 367.903L588.039 368.076C587.86 368.076 587.755 367.976 587.724 367.777L584.419 350.966L583.254 367.572C583.243 367.824 583.107 367.955 582.845 367.965L579.602 368.076C579.371 368.076 579.256 367.976 579.256 367.777L581.979 343.962C582.021 343.742 582.157 343.621 582.388 343.6L585.583 343.427C585.73 343.427 585.825 343.459 585.867 343.522C585.919 343.574 585.961 343.668 585.992 343.805L589.188 359.686L590.289 343.962C590.3 343.731 590.442 343.611 590.714 343.6L593.847 343.427C594.13 343.427 594.272 343.553 594.272 343.805ZM622.671 343.868L620.42 363.873L626.448 363.637C626.721 363.648 626.857 363.784 626.857 364.046L626.448 367.304C626.417 367.577 626.28 367.719 626.039 367.729L616.343 368.076C616.123 368.076 616.013 367.976 616.013 367.777L618.704 343.962C618.725 343.836 618.757 343.747 618.799 343.695C618.851 343.642 618.951 343.611 619.098 343.6L622.261 343.49C622.534 343.501 622.671 343.626 622.671 343.868ZM654.312 343.789L656.106 352.777L659.333 343.962C659.417 343.731 659.548 343.611 659.727 343.6L662.969 343.49C663.095 343.501 663.195 343.543 663.268 343.616C663.352 343.689 663.394 343.768 663.394 343.852L657.523 356.979L656.311 367.572C656.28 367.824 656.143 367.955 655.902 367.965L652.659 368.076C652.429 368.076 652.313 367.976 652.313 367.777L653.494 357.325L650.283 343.852C650.283 343.705 650.424 343.621 650.708 343.6L653.903 343.474C654.134 343.485 654.27 343.59 654.312 343.789ZM709.347 368.249C709.085 368.249 708.954 368.123 708.954 367.871L709.347 364.581C709.389 364.351 709.526 364.225 709.757 364.204C711.393 364.036 712.474 363.779 712.999 363.432C713.524 363.076 713.786 362.373 713.786 361.323C713.786 360.274 713.518 358.91 712.983 357.231C712.448 355.542 712.102 354.419 711.944 353.863C711.441 352.079 711.189 350.62 711.189 349.487C711.189 348.343 711.373 347.367 711.74 346.559C712.107 345.751 712.632 345.106 713.314 344.623C714.636 343.7 716.415 343.238 718.65 343.238C718.933 343.238 719.075 343.369 719.075 343.632L718.65 346.89C718.608 347.152 718.476 347.294 718.256 347.315C716.22 347.451 715.203 348.055 715.203 349.125C715.203 350.111 715.633 352.053 716.493 354.949C717.364 357.834 717.8 359.901 717.8 361.15C717.8 365.883 714.982 368.249 709.347 368.249ZM747.285 343.868L745.475 360.001C745.328 361.239 745.254 362.121 745.254 362.645C745.254 363.17 745.401 363.616 745.695 363.983C745.989 364.351 746.466 364.534 747.127 364.534C747.788 364.534 748.292 364.204 748.638 363.543C748.985 362.882 749.242 361.822 749.41 360.363L751.251 343.962C751.283 343.731 751.424 343.611 751.676 343.6L754.856 343.474C755.118 343.485 755.249 343.611 755.249 343.852L753.439 360.001C753.072 363.306 752.222 365.568 750.889 366.785C749.808 367.761 748.397 368.249 746.655 368.249C744.924 368.249 743.596 367.798 742.673 366.895C741.76 365.982 741.304 364.639 741.304 362.866C741.304 362.016 741.356 361.129 741.461 360.206L743.318 343.962C743.339 343.826 743.371 343.737 743.413 343.695C743.465 343.642 743.565 343.611 743.712 343.6L746.891 343.49C747.154 343.501 747.285 343.626 747.285 343.868ZM790.511 353.327C789.608 356.822 786.786 358.574 782.043 358.585L781.051 367.509C781.02 367.761 780.888 367.892 780.658 367.903L777.352 368.076C777.121 368.055 777.006 367.955 777.006 367.777L779.729 343.962C779.771 343.742 779.907 343.621 780.138 343.6C782.1 343.422 783.973 343.333 785.757 343.333C789.304 343.333 791.077 345.033 791.077 348.432C791.077 350.29 790.888 351.921 790.511 353.327ZM783.333 347L782.436 354.949C784.251 354.949 785.474 354.571 786.103 353.815C786.733 353.06 787.048 351.591 787.048 349.408C787.048 348.569 786.822 347.95 786.371 347.551C785.92 347.152 785.343 346.953 784.64 346.953C783.937 346.953 783.501 346.969 783.333 347ZM822.829 357.247L817.934 357.436L817.194 363.889L823.222 363.684C823.495 363.695 823.632 363.831 823.632 364.093L823.222 367.352C823.201 367.572 823.065 367.708 822.813 367.761L813.133 368.076C812.902 368.076 812.787 367.976 812.787 367.777L815.51 343.962C815.552 343.742 815.688 343.621 815.919 343.6L824.545 343.301C824.807 343.333 824.938 343.474 824.938 343.726L824.545 346.984C824.513 347.247 824.377 347.388 824.135 347.409L819.067 347.551L818.39 353.406L823.238 353.233C823.511 353.244 823.647 353.38 823.647 353.642L823.238 356.853C823.196 357.095 823.06 357.226 822.829 357.247ZM860.105 367.635C860.105 367.845 859.964 367.95 859.68 367.95L856.139 368.076C855.981 368.065 855.866 367.965 855.792 367.777L851.842 357.766L850.74 367.572C850.709 367.824 850.577 367.955 850.346 367.965L847.057 368.076C846.826 368.055 846.711 367.955 846.711 367.777L849.434 344.088C849.455 343.899 849.502 343.773 849.575 343.71C849.649 343.637 850.205 343.558 851.244 343.474C852.282 343.38 853.668 343.333 855.399 343.333C857.13 343.333 858.463 343.794 859.397 344.718C860.341 345.631 860.813 346.811 860.813 348.259C860.813 349.707 860.64 350.987 860.294 352.1C859.948 353.202 859.376 354.193 858.578 355.075C857.781 355.956 856.784 356.612 855.588 357.042L860.058 367.446C860.089 367.509 860.105 367.572 860.105 367.635ZM853.054 347L852.172 354.823C854.114 354.707 855.451 353.826 856.186 352.178C856.585 351.276 856.784 350.363 856.784 349.44C856.784 348.506 856.59 347.855 856.202 347.488C855.824 347.11 855.273 346.921 854.549 346.921C853.825 346.921 853.327 346.948 853.054 347ZM892.785 357.404L887.749 357.577L886.615 367.509C886.573 367.75 886.437 367.882 886.206 367.903L882.964 368.076C882.733 368.076 882.618 367.976 882.618 367.777L885.356 343.962C885.398 343.742 885.535 343.621 885.765 343.6L894.391 343.238C894.653 343.27 894.784 343.411 894.784 343.663L894.391 346.921C894.359 347.194 894.223 347.336 893.982 347.346L888.913 347.519L888.221 353.564L893.195 353.39C893.467 353.401 893.604 353.537 893.604 353.8L893.195 357.011C893.153 357.252 893.016 357.383 892.785 357.404ZM922.979 343.868L920.287 367.572C920.256 367.824 920.119 367.955 919.878 367.965L916.636 368.076C916.405 368.076 916.289 367.976 916.289 367.777L919.012 343.962C919.054 343.742 919.191 343.621 919.422 343.6L922.57 343.49C922.842 343.501 922.979 343.626 922.979 343.868ZM956.399 347.283L953.755 347.016C952.8 347.016 952.06 347.247 951.535 347.708C950.979 348.222 950.57 349.214 950.308 350.683C950.045 352.142 949.793 354.088 949.552 356.523C949.311 358.947 949.19 360.699 949.19 361.78C949.19 362.85 949.363 363.611 949.709 364.062C950.056 364.503 950.465 364.723 950.937 364.723C951.42 364.723 951.808 364.718 952.102 364.707L953.141 355.783C953.183 355.552 953.319 355.426 953.55 355.405L956.509 355.295C956.792 355.305 956.934 355.431 956.934 355.673L955.612 367.478C955.57 367.708 955.428 367.84 955.187 367.871C953.791 368.081 952.091 368.186 950.087 368.186C947.684 368.186 946.142 367.026 945.46 364.707C945.271 364.067 945.176 363.432 945.176 362.803C945.176 362.173 945.197 361.428 945.239 360.568C945.365 357.483 945.733 354.282 946.341 350.966C946.75 348.658 947.254 347.037 947.852 346.103C948.482 345.127 949.237 344.445 950.119 344.057C951.22 343.574 952.401 343.333 953.66 343.333C954.919 343.333 955.759 343.369 956.178 343.443C956.598 343.506 956.834 343.543 956.887 343.553C957.013 343.595 957.076 343.726 957.076 343.947L956.729 346.874C956.687 347.147 956.577 347.283 956.399 347.283ZM994.147 343.852L991.456 367.572C991.414 367.813 991.283 367.944 991.062 367.965L987.82 368.076C987.589 368.076 987.474 367.976 987.474 367.777L988.638 357.436L984.641 357.577L983.507 367.572C983.476 367.824 983.339 367.955 983.098 367.965L979.856 368.076C979.625 368.076 979.509 367.976 979.509 367.777L982.217 343.962C982.259 343.742 982.395 343.621 982.626 343.6L985.79 343.474C986.062 343.485 986.199 343.611 986.199 343.852L985.05 353.878L989.063 353.737L990.165 343.962C990.197 343.731 990.338 343.611 990.59 343.6L993.738 343.474C994.011 343.485 994.147 343.611 994.147 343.852ZM1017.37 343.663L1027.57 343.301C1027.81 343.312 1027.93 343.443 1027.93 343.695L1027.52 346.921C1027.5 347.079 1027.46 347.189 1027.41 347.252C1027.37 347.315 1027.27 347.352 1027.13 347.362L1024.07 347.472L1021.78 367.572C1021.74 367.824 1021.61 367.955 1021.37 367.965L1018.09 368.076C1017.88 368.076 1017.78 367.976 1017.78 367.777L1020.09 347.598L1016.96 347.693C1016.7 347.682 1016.57 347.561 1016.57 347.331L1016.96 344.057C1016.97 343.805 1017.11 343.674 1017.37 343.663ZM1047.67 368.249C1047.41 368.249 1047.28 368.123 1047.28 367.871L1047.67 364.581C1047.71 364.351 1047.85 364.225 1048.08 364.204C1049.72 364.036 1050.8 363.779 1051.32 363.432C1051.85 363.076 1052.11 362.373 1052.11 361.323C1052.11 360.274 1051.84 358.91 1051.31 357.231C1050.77 355.542 1050.43 354.419 1050.27 353.863C1049.76 352.079 1049.51 350.62 1049.51 349.487C1049.51 348.343 1049.7 347.367 1050.06 346.559C1050.43 345.751 1050.96 345.106 1051.64 344.623C1052.96 343.7 1054.74 343.238 1056.97 343.238C1057.26 343.238 1057.4 343.369 1057.4 343.632L1056.97 346.89C1056.93 347.152 1056.8 347.294 1056.58 347.315C1054.54 347.451 1053.53 348.055 1053.53 349.125C1053.53 350.111 1053.96 352.053 1054.82 354.949C1055.69 357.834 1056.12 359.901 1056.12 361.15C1056.12 365.883 1053.31 368.249 1047.67 368.249Z" fill="white"/>
<path d="M442.237 252.08V283.218C442.237 284.197 442.727 284.686 443.706 284.686H455.456C456.435 284.686 456.925 284.197 456.925 283.218V230.343L433.719 220.061C431.956 219.474 429.508 218.495 426.375 217.124C423.242 215.557 420.402 213.305 417.856 210.368C415.506 207.43 414.331 203.416 414.331 198.324V131.349C414.331 123.124 416.877 116.564 421.969 111.668C427.06 106.576 433.719 104.03 441.944 104.03H457.219C465.444 104.03 472.102 106.576 477.194 111.668C482.285 116.564 484.831 123.124 484.831 131.349V174.824L456.925 172.474V132.818C456.925 131.839 456.435 131.349 455.456 131.349H443.706C442.727 131.349 442.237 131.839 442.237 132.818V194.211L465.444 204.493C467.206 205.276 469.654 206.353 472.787 207.724C475.921 209.095 478.662 211.249 481.012 214.186C483.558 217.124 484.831 221.138 484.831 226.23V284.686C484.831 292.911 482.285 299.57 477.194 304.661C472.102 309.557 465.444 312.005 457.219 312.005H441.944C433.719 312.005 427.06 309.557 421.969 304.661C416.877 299.57 414.331 292.911 414.331 284.686V252.08H442.237ZM573.036 221.53V284.686C573.036 292.911 570.491 299.57 565.399 304.661C560.307 309.557 553.649 312.005 545.424 312.005H524.274C516.049 312.005 509.391 309.557 504.299 304.661C499.207 299.57 496.661 292.911 496.661 284.686V131.349C496.661 123.124 499.207 116.564 504.299 111.668C509.391 106.576 516.049 104.03 524.274 104.03H545.424C553.649 104.03 560.307 106.576 565.399 111.668C570.491 116.564 573.036 123.124 573.036 131.349V197.149L545.13 194.211V132.818C545.13 131.839 544.641 131.349 543.661 131.349H526.036C525.057 131.349 524.568 131.839 524.568 132.818V283.218C524.568 284.197 525.057 284.686 526.036 284.686H543.661C544.641 284.686 545.13 284.197 545.13 283.218V221.53H573.036ZM581.791 132.524L584.729 105.205H631.141C639.366 105.205 646.025 107.751 651.116 112.843C656.208 117.739 658.754 124.299 658.754 132.524V224.468C658.754 228.776 657.873 232.693 656.11 236.218C654.348 239.547 651.998 242.386 649.06 244.736L667.86 310.83H639.66L622.916 251.786H614.104V310.83H586.198V132.524H581.791ZM629.379 132.524H614.104V224.468H629.379C630.358 224.468 630.848 223.978 630.848 222.999V133.993C630.848 133.014 630.358 132.524 629.379 132.524ZM701.495 310.83H673.588L689.451 132.524H684.163L687.101 105.205H740.857L759.069 310.83H731.163L727.932 275.58H704.726L701.495 310.83ZM707.076 248.261H725.582L716.476 146.036L707.076 248.261ZM769.218 310.83V132.524H764.811L767.749 105.205H813.574L827.674 215.949L842.068 105.205H887.011V310.83H859.105V151.03L837.368 281.455H818.274L797.124 154.555V310.83H769.218ZM898.846 312.886V132.524H894.44L897.377 105.205H943.79C952.015 105.205 958.673 107.751 963.765 112.843C968.857 117.739 971.402 124.299 971.402 132.524V194.211C971.402 196.953 971.011 199.597 970.227 202.143C974.927 207.234 977.277 213.697 977.277 221.53V285.568C977.277 293.793 974.144 300.451 967.877 305.543C961.807 310.438 954.659 312.886 946.434 312.886H898.846ZM942.027 132.524H926.752V194.211H942.027C943.007 194.211 943.496 193.722 943.496 192.743V133.993C943.496 133.014 943.007 132.524 942.027 132.524ZM947.902 221.53H926.752V285.568H947.902C948.882 285.568 949.371 285.078 949.371 284.099V222.999C949.371 222.02 948.882 221.53 947.902 221.53ZM1062.95 283.511L1060.6 310.83H990.39V132.524H985.984L988.922 105.205H1018.3V283.511H1062.95ZM1137.07 283.511L1134.72 310.83H1070.39V132.524H1065.99L1068.92 105.205H1137.07L1134.14 132.524H1098.3V194.211H1131.2L1128.26 221.53H1098.3V283.511H1137.07Z" fill="#0AFF22"/>
<path d="M183.274 0.513672L0 103.605V309.789L183.274 412.881L366.549 309.789V103.605L183.274 0.513672ZM276.24 326.115V285.256L299.572 272.134V247.776L92.8758 126.69L66.9318 141.261V163.907L238.315 264.322V347.401L183.229 378.385L30.6283 292.541V226.842L66.9318 248.127V272.134L183.229 337.57L199.444 328.441V286.968L66.9318 209.287V209.55L30.6283 188.265V120.853L183.274 34.9654L335.875 120.809V184.71L298.085 162.546L299.572 141.217L183.274 75.7808L132.377 104.395L295.518 199.675V199.588L335.875 223.243V292.497L276.24 326.027V326.115Z" fill="#0AFF22"/>
</svg>
