<svg width="373" height="429" viewBox="0 0 373 429" fill="none" xmlns="http://www.w3.org/2000/svg">
<path d="M186.12 0L0 107.107V321.32L186.12 428.426L372.239 321.32V107.107L186.12 0ZM280.529 338.282V295.831L304.223 282.198V256.892L94.3177 131.09L67.9709 146.229V169.756L242.015 274.082V360.396L186.074 392.587L31.1038 303.4V235.142L67.9709 257.256V282.198L186.074 350.182L202.541 340.698V297.609L67.9709 216.903V217.177L31.1038 195.063V125.026L186.12 35.7934L341.09 124.98V191.369L302.713 168.343L304.223 146.183L186.12 78.1983L134.432 107.927L300.106 206.918V206.826L341.09 231.403V303.355L280.529 338.19V338.282Z" fill="#0AFF22"/>
</svg>
