<?xml version="1.0" encoding="UTF-8"?>
<svg id="Layer_2" data-name="Layer 2" xmlns="http://www.w3.org/2000/svg" viewBox="0 0 322.6 103.04">
  <g id="Layer_1-2" data-name="Layer 1">
    <g>
      <g>
        <path d="m105.14,10.19c-.1,0-.15-.05-.15-.14l.15-1.22c.02-.09.07-.13.15-.14.61-.06,1.01-.16,1.21-.29s.29-.39.29-.78-.1-.9-.3-1.53-.33-1.04-.39-1.25c-.19-.66-.28-1.21-.28-1.63s.07-.79.21-1.09.33-.54.59-.72c.49-.34,1.15-.52,1.99-.52.11,0,.16.05.16.15l-.16,1.21c-.02.1-.06.15-.15.16-.76.05-1.14.28-1.14.67,0,.37.16,1.09.48,2.17s.48,1.85.48,2.31c0,1.76-1.05,2.64-3.15,2.64Z"/>
        <path d="m121.22,10.19c-.66,0-1.16-.2-1.49-.59s-.5-.88-.5-1.46c0-1.49.15-2.97.45-4.42.24-1.14.57-1.91.99-2.3.4-.36.92-.54,1.58-.54s1.15.2,1.49.59.51.88.51,1.46-.04,1.27-.11,2.09-.17,1.5-.28,2.05-.2.95-.28,1.2-.18.51-.31.76-.29.46-.46.62c-.39.36-.92.53-1.58.53Zm.15-1.38c.5,0,.81-.46.96-1.37.09-.61.19-1.36.28-2.26s.14-1.54.14-1.9-.06-.63-.18-.78-.29-.23-.51-.23c-.45,0-.76.46-.92,1.38-.09.54-.19,1.27-.28,2.19s-.14,1.58-.14,1.95.06.64.18.79.28.23.47.23Z"/>
        <path d="m137.28,1.11l-.67,6.01c-.05.46-.08.79-.08.98s.05.36.16.5.29.21.53.21.43-.12.56-.37.22-.64.29-1.18l.69-6.11c.01-.09.06-.13.16-.13l1.18-.05c.1,0,.15.05.15.14l-.67,6.01c-.14,1.23-.45,2.07-.95,2.53-.4.36-.93.54-1.57.54s-1.14-.17-1.48-.51-.51-.84-.51-1.5c0-.32.02-.65.06-.99l.69-6.05c0-.05.02-.08.04-.1s.05-.03.11-.03l1.18-.04c.1,0,.15.05.15.14Z"/>
        <path d="m151.17,1.03l3.8-.13c.09,0,.13.05.13.15l-.15,1.2c0,.06-.02.1-.04.12s-.05.04-.11.04l-1.14.04-.86,7.48c-.01.09-.06.14-.15.15l-1.22.04c-.08,0-.12-.04-.12-.11l.86-7.51-1.17.04c-.1,0-.15-.05-.15-.13l.15-1.22c0-.09.05-.14.15-.15Z"/>
        <path d="m170.31,1.1l-1,8.83c-.02.09-.06.14-.15.15l-1.21.04c-.09,0-.13-.04-.13-.11l.43-3.85-1.49.05-.42,3.72c-.01.09-.06.14-.15.15l-1.21.04c-.09,0-.13-.04-.13-.11l1.01-8.87c.02-.08.07-.13.15-.13l1.18-.05c.1,0,.15.05.15.14l-.43,3.73,1.49-.05.41-3.64c.01-.09.06-.13.16-.13l1.17-.05c.1,0,.15.05.15.14Z"/>
        <path d="m184.42,6.09l-1.82.07-.28,2.4,2.24-.08c.1,0,.15.05.15.15l-.15,1.21c0,.08-.06.13-.15.15l-3.6.12c-.09,0-.13-.04-.13-.11l1.01-8.87c.02-.08.07-.13.15-.13l3.21-.11c.1.01.15.06.15.16l-.15,1.21c-.01.1-.06.15-.15.16l-1.89.05-.25,2.18,1.8-.06c.1,0,.15.05.15.15l-.15,1.2c-.02.09-.07.14-.15.15Z"/>
        <path d="m199.27,1.1l.69,8.82c0,.09-.05.14-.15.15l-1.22.05c-.08,0-.12-.04-.12-.11l-.09-1.93-1.33.05-.44,1.8c-.01.05-.03.09-.05.11s-.05.03-.11.04l-1.21.04c-.08,0-.12-.04-.12-.11l2.57-8.87c.03-.09.08-.13.16-.13l1.29-.05c.08,0,.13.05.13.14Zm-1.11,2.41l-.82,3.36.97-.04-.15-3.33Z"/>
        <path d="m210.71,10.19c-.1,0-.15-.05-.15-.14l.15-1.22c.02-.09.07-.13.15-.14.61-.06,1.01-.16,1.21-.29s.29-.39.29-.78-.1-.9-.3-1.53-.33-1.04-.39-1.25c-.19-.66-.28-1.21-.28-1.63s.07-.79.21-1.09.33-.54.59-.72c.49-.34,1.15-.52,1.99-.52.11,0,.16.05.16.15l-.16,1.21c-.02.1-.06.15-.15.16-.76.05-1.14.28-1.14.67,0,.37.16,1.09.48,2.17s.48,1.85.48,2.31c0,1.76-1.05,2.64-3.15,2.64Z"/>
        <path d="m225.17,1.03l3.8-.13c.09,0,.13.05.13.15l-.15,1.2c0,.06-.02.1-.04.12s-.05.04-.11.04l-1.14.04-.86,7.48c-.01.09-.06.14-.15.15l-1.22.04c-.08,0-.12-.04-.12-.11l.86-7.51-1.17.04c-.1,0-.15-.05-.15-.13l.15-1.22c0-.09.05-.14.15-.15Z"/>
      </g>
      <g>
        <path d="m110.32,65.05v9.16c0,.29.14.43.43.43h3.46c.29,0,.43-.14.43-.43v-15.55l-6.83-3.02c-.52-.17-1.24-.48-2.16-.91-.92-.43-1.74-1.08-2.46-1.94-.72-.86-1.08-2.04-1.08-3.54v-19.7c0-2.42.75-4.36,2.25-5.83,1.5-1.47,3.46-2.2,5.88-2.2h4.49c2.42,0,4.38.73,5.88,2.2,1.5,1.47,2.25,3.41,2.25,5.83v12.79l-8.21-.69v-11.66c0-.29-.14-.43-.43-.43h-3.46c-.29,0-.43.14-.43.43v18.06l6.83,3.02c.52.23,1.24.55,2.16.95.92.4,1.74,1.04,2.46,1.9.72.86,1.08,2.05,1.08,3.54v17.19c0,2.42-.75,4.36-2.25,5.83-1.5,1.47-3.46,2.2-5.88,2.2h-4.49c-2.42,0-4.38-.73-5.88-2.2-1.5-1.47-2.25-3.41-2.25-5.83v-9.59h8.21Z"/>
        <path d="m149.89,56.07v18.58c0,2.42-.75,4.36-2.25,5.83-1.5,1.47-3.46,2.2-5.88,2.2h-6.22c-2.42,0-4.38-.73-5.88-2.2-1.5-1.47-2.25-3.41-2.25-5.83V29.54c0-2.42.75-4.36,2.25-5.83,1.5-1.47,3.46-2.2,5.88-2.2h6.22c2.42,0,4.38.73,5.88,2.2,1.5,1.47,2.25,3.41,2.25,5.83v19.35l-8.21-.86v-18.06c0-.29-.14-.43-.43-.43h-5.18c-.29,0-.43.14-.43.43v44.24c0,.29.14.43.43.43h5.18c.29,0,.43-.14.43-.43v-18.14h8.21Z"/>
        <path d="m153.61,29.89l.86-8.04h13.65c2.42,0,4.38.73,5.88,2.2,1.5,1.47,2.25,3.41,2.25,5.83v27.04c0,1.27-.26,2.41-.78,3.41-.52,1.01-1.21,1.86-2.07,2.55l5.53,19.44h-8.29l-4.92-17.37h-2.59v17.37h-8.21V29.89h-1.3Zm14,0h-4.49v27.04h4.49c.29,0,.43-.14.43-.43v-26.18c0-.29-.14-.43-.43-.43Z"/>
        <path d="m189.98,82.33h-8.21l4.67-52.44h-1.56l.86-8.04h15.81l5.36,60.48h-8.21l-.95-10.37h-6.83l-.95,10.37Zm1.64-18.4h5.44l-2.68-30.07-2.76,30.07Z"/>
        <path d="m211.06,82.33V29.89h-1.3l.86-8.04h13.48l4.15,32.57,4.23-32.57h13.22v60.48h-8.21v-47l-6.39,38.36h-5.62l-6.22-37.32v45.96h-8.21Z"/>
        <path d="m250.28,82.93V29.89h-1.3l.86-8.04h13.65c2.42,0,4.38.73,5.87,2.2,1.5,1.47,2.25,3.41,2.25,5.83v18.14c0,.81-.12,1.58-.35,2.33,1.38,1.5,2.07,3.4,2.07,5.7v18.83c0,2.42-.91,4.36-2.72,5.83s-3.93,2.2-6.35,2.2h-14Zm12.7-53.05h-4.49v18.14h4.49c.29,0,.43-.14.43-.43v-17.28c0-.29-.14-.43-.43-.43Zm1.73,26.18h-6.22v18.83h6.22c.29,0,.43-.14.43-.43v-17.97c0-.29-.14-.43-.43-.43Z"/>
        <path d="m299.7,74.29l-.69,8.04h-20.65V29.89h-1.3l.86-8.04h8.64v52.44h13.13Z"/>
        <path d="m322.6,74.29l-.69,8.04h-18.92V29.89h-1.3l.86-8.04h20.04l-.86,8.04h-10.54v18.14h9.68l-.86,8.04h-8.81v18.23h11.4Z"/>
      </g>
      <g>
        <path d="m104.97,101.17c-.06,0-.1-.03-.1-.09l.1-.8c.01-.06.04-.09.1-.09.4-.04.66-.1.79-.19s.19-.26.19-.51-.07-.59-.2-1c-.13-.41-.22-.69-.25-.82-.12-.44-.18-.79-.18-1.07s.04-.52.13-.71.22-.36.38-.47c.32-.23.76-.34,1.3-.34.07,0,.1.03.1.1l-.1.8c-.01.06-.04.1-.1.1-.5.03-.75.18-.75.44,0,.24.11.71.32,1.42.21.71.32,1.21.32,1.52,0,1.16-.69,1.73-2.07,1.73Z"/>
        <path d="m114.16,95.21l-.44,3.94c-.04.3-.05.52-.05.65s.04.24.11.33.19.13.35.13.28-.08.37-.24c.08-.16.15-.42.19-.78l.45-4.01c0-.06.04-.09.1-.09l.78-.03c.06,0,.1.03.1.09l-.44,3.95c-.09.81-.3,1.36-.62,1.66-.26.24-.61.36-1.03.36s-.75-.11-.97-.33c-.22-.22-.34-.55-.34-.98,0-.21.01-.42.04-.65l.45-3.97s.01-.06.03-.07c.01-.01.04-.02.07-.02l.78-.03c.06,0,.1.03.1.09Z"/>
        <path d="m124.71,96.32c0,.76-.29,1.29-.88,1.58.2.08.36.21.47.39s.17.4.17.67-.04.53-.12.78c-.08.25-.21.47-.38.67-.36.43-.93.65-1.71.68l-.83.03c-.06,0-.08-.03-.08-.07l.66-5.79s.02-.08.03-.09c.02-.02.18-.04.48-.06s.59-.03.87-.03c.46,0,.8.11,1.01.33.21.22.32.53.32.91Zm-1.87,1.96c-.1,0-.17,0-.21,0l-.21,1.87c.37,0,.64-.12.83-.35s.28-.54.28-.92c0-.18-.06-.33-.18-.44-.12-.11-.29-.17-.52-.17Zm-.14-.61c.74,0,1.1-.39,1.1-1.17,0-.41-.21-.61-.63-.61-.12,0-.21,0-.28.01l-.2,1.77Z"/>
        <path d="m137.72,101.17c-.43,0-.76-.13-.98-.38-.22-.26-.33-.58-.33-.96,0-.98.1-1.95.3-2.9.16-.75.37-1.25.65-1.51.26-.24.61-.35,1.04-.35s.76.13.98.39c.22.26.33.58.33.96s-.02.84-.07,1.37-.11.99-.18,1.35-.13.62-.18.79c-.05.17-.12.33-.21.5-.09.17-.19.31-.3.41-.26.23-.6.35-1.04.35Zm.1-.91c.33,0,.53-.3.63-.9.06-.4.12-.89.18-1.49.06-.59.09-1.01.09-1.25s-.04-.41-.12-.51c-.08-.1-.19-.15-.33-.15-.3,0-.5.3-.6.9-.06.35-.12.83-.18,1.44-.06.61-.09,1.03-.09,1.28s.04.42.12.52c.08.1.18.15.31.15Z"/>
        <path d="m148.72,95.19l-.66,5.79c-.01.06-.04.09-.1.1l-.76.04s-.07-.02-.08-.07l-.81-4.11-.28,4.06c0,.06-.04.09-.1.1l-.79.03c-.06,0-.08-.02-.08-.07l.67-5.82c.01-.05.04-.08.1-.09l.78-.04s.06,0,.07.02c.01.01.02.04.03.07l.78,3.88.27-3.84c0-.06.04-.09.1-.09l.77-.04c.07,0,.1.03.1.09Z"/>
        <path d="m155.58,95.21l-.55,4.89,1.47-.06c.07,0,.1.04.1.1l-.1.8c0,.07-.04.1-.1.1l-2.37.08c-.05,0-.08-.02-.08-.07l.66-5.82s.01-.05.02-.07.04-.02.07-.02l.77-.03c.07,0,.1.03.1.09Z"/>
        <path d="m163.23,95.19l.44,2.2.79-2.15c.02-.06.05-.09.1-.09l.79-.03s.06.01.08.03c.02.02.03.04.03.06l-1.44,3.21-.3,2.59c0,.06-.04.09-.1.1l-.79.03c-.06,0-.08-.02-.08-.07l.29-2.55-.79-3.29s.03-.06.1-.06l.78-.03c.06,0,.09.03.1.08Z"/>
        <path d="m176.52,101.17c-.06,0-.1-.03-.1-.09l.1-.8c.01-.06.04-.09.1-.09.4-.04.66-.1.79-.19s.19-.26.19-.51-.07-.59-.2-1c-.13-.41-.22-.69-.25-.82-.12-.44-.18-.79-.18-1.07s.04-.52.13-.71.22-.36.38-.47c.32-.23.76-.34,1.3-.34.07,0,.1.03.1.1l-.1.8c-.01.06-.04.1-.1.1-.5.03-.75.18-.75.44,0,.24.11.71.32,1.42.21.71.32,1.21.32,1.52,0,1.16-.69,1.73-2.07,1.73Z"/>
        <path d="m185.71,95.21l-.44,3.94c-.04.3-.05.52-.05.65s.04.24.11.33.19.13.35.13.28-.08.37-.24c.08-.16.15-.42.19-.78l.45-4.01c0-.06.04-.09.1-.09l.78-.03c.06,0,.1.03.1.09l-.44,3.95c-.09.81-.3,1.36-.62,1.66-.26.24-.61.36-1.03.36s-.75-.11-.97-.33c-.22-.22-.34-.55-.34-.98,0-.21.01-.42.04-.65l.45-3.97s.01-.06.03-.07c.01-.01.04-.02.07-.02l.78-.03c.06,0,.1.03.1.09Z"/>
        <path d="m196.19,97.52c-.22.85-.91,1.28-2.07,1.29l-.24,2.18c0,.06-.04.09-.1.1l-.81.04c-.06,0-.08-.03-.08-.07l.67-5.82c.01-.05.04-.08.1-.09.48-.04.94-.07,1.37-.07.87,0,1.3.42,1.3,1.25,0,.45-.05.85-.14,1.2Zm-1.75-1.55l-.22,1.94c.44,0,.74-.09.9-.28s.23-.54.23-1.08c0-.21-.06-.36-.17-.45-.11-.1-.25-.15-.42-.15s-.28,0-.32.01Z"/>
        <path d="m204.01,98.48l-1.2.05-.18,1.58,1.47-.05c.07,0,.1.04.1.1l-.1.8c0,.05-.04.09-.1.1l-2.37.08c-.06,0-.08-.02-.08-.07l.67-5.82c.01-.05.04-.08.1-.09l2.11-.07c.06,0,.1.04.1.1l-.1.8c0,.06-.04.1-.1.1l-1.24.03-.17,1.43,1.19-.04c.07,0,.1.04.1.1l-.1.78c-.01.06-.04.09-.1.1Z"/>
        <path d="m213.04,101.02c0,.05-.03.08-.1.08l-.87.03s-.07-.03-.08-.07l-.97-2.45-.27,2.4c0,.06-.04.09-.1.1l-.8.03c-.06,0-.08-.03-.08-.07l.67-5.79s.02-.08.03-.09c.02-.02.15-.04.41-.06.25-.02.59-.03,1.02-.03s.75.11.98.34c.23.22.34.51.34.87s-.04.67-.13.94c-.08.27-.22.51-.42.73-.2.22-.44.38-.73.48l1.09,2.54s.01.03.01.05Zm-1.72-5.04l-.22,1.91c.47-.03.8-.24.98-.65.1-.22.15-.44.15-.67s-.05-.39-.14-.48c-.09-.09-.23-.14-.41-.14s-.3,0-.37.02Z"/>
        <path d="m220.95,98.52l-1.23.04-.28,2.43c-.01.06-.04.09-.1.1l-.79.04c-.06,0-.08-.02-.08-.07l.67-5.82c.01-.05.04-.08.1-.09l2.11-.09c.06,0,.1.04.1.1l-.1.8c0,.07-.04.1-.1.1l-1.24.04-.17,1.48,1.22-.04c.07,0,.1.04.1.1l-.1.79c-.01.06-.04.09-.1.1Z"/>
        <path d="m228.25,95.21l-.66,5.79c0,.06-.04.09-.1.1l-.79.03c-.06,0-.08-.02-.08-.07l.67-5.82c.01-.05.04-.08.1-.09l.77-.03c.07,0,.1.03.1.09Z"/>
        <path d="m236.33,96.04l-.65-.07c-.23,0-.41.06-.54.17-.14.12-.24.37-.3.72-.06.36-.13.83-.18,1.43s-.09,1.02-.09,1.28.04.45.13.56c.08.11.19.16.3.16s.21,0,.28,0l.25-2.18c.01-.06.04-.09.1-.09l.72-.03c.07,0,.1.03.1.09l-.32,2.88c-.01.06-.04.09-.1.1-.34.05-.76.08-1.25.08-.59,0-.96-.28-1.13-.85-.05-.16-.07-.31-.07-.47s0-.34.02-.55c.03-.75.12-1.54.27-2.35.1-.56.22-.96.37-1.19.15-.24.34-.41.55-.5.27-.12.56-.18.87-.18s.51,0,.62.02.16.03.17.03c.03,0,.05.04.05.1l-.08.72c-.01.07-.04.1-.08.1Z"/>
        <path d="m245.47,95.2l-.66,5.8c-.01.06-.04.09-.1.1l-.79.03c-.06,0-.08-.02-.08-.07l.28-2.53-.98.03-.28,2.44c0,.06-.04.09-.1.1l-.79.03c-.06,0-.08-.02-.08-.07l.66-5.82c.01-.05.04-.08.1-.09l.77-.03c.07,0,.1.03.1.09l-.28,2.45.98-.04.27-2.39c0-.06.04-.09.1-.09l.77-.03c.07,0,.1.03.1.09Z"/>
        <path d="m251.07,95.16l2.49-.09c.06,0,.09.03.09.1l-.1.79s-.01.07-.02.08c-.01.02-.04.02-.07.03l-.75.03-.56,4.91c0,.06-.04.09-.1.1l-.8.03c-.05,0-.08-.02-.08-.07l.57-4.93-.77.02c-.06,0-.1-.03-.1-.09l.1-.8c0-.06.04-.09.1-.1Z"/>
        <path d="m258.4,101.17c-.06,0-.1-.03-.1-.09l.1-.8c.01-.06.04-.09.1-.09.4-.04.66-.1.79-.19s.19-.26.19-.51-.07-.59-.2-1c-.13-.41-.22-.69-.25-.82-.12-.44-.18-.79-.18-1.07s.04-.52.13-.71.22-.36.38-.47c.32-.23.76-.34,1.3-.34.07,0,.1.03.1.1l-.1.8c-.01.06-.04.1-.1.1-.5.03-.75.18-.75.44,0,.24.11.71.32,1.42.21.71.32,1.21.32,1.52,0,1.16-.69,1.73-2.07,1.73Z"/>
      </g>
      <path d="m44.62,0L0,25.76v51.52l44.62,25.76,44.62-25.76V25.76L44.62,0Zm22.64,81.35v-10.21l5.68-3.28v-6.08L22.62,31.52l-6.31,3.65v5.66l41.72,25.09v20.76l-13.41,7.74L7.46,72.97v-16.42l8.84,5.32v6l28.32,16.35,3.95-2.28v-10.37l-32.27-19.4v.07l-8.84-5.32v-16.85L44.62,8.61l37.16,21.45v15.97l-9.2-5.53.36-5.33-28.32-16.35-12.39,7.15,39.72,23.8v-.02s9.83,5.91,9.83,5.91v17.3l-14.52,8.38Z"/>
    </g>
  </g>
</svg>