<svg width="200" height="226" viewBox="0 0 200 226" fill="none" xmlns="http://www.w3.org/2000/svg">
<path d="M100.304 0.344727L0.767181 56.535V168.916L100.304 225.106L199.841 168.916V56.535L100.304 0.344727ZM150.794 177.814V155.544L163.466 148.391V135.115L51.2084 69.1174L37.1182 77.0592V89.4024L130.197 144.133V189.416L100.28 206.304L17.4015 159.515V123.705L37.1182 135.307V148.391L100.28 184.058L109.086 179.082V156.477L37.1182 114.137V114.28L17.4015 102.679V65.9359L100.304 19.1227L183.183 65.912V100.741L162.659 88.6608L163.466 77.0353L100.304 41.3691L72.6619 56.9656L161.264 108.898V108.85L183.183 121.743V159.491L150.794 177.766V177.814Z" fill="#0AFF22"/>
</svg>
