<?xml version="1.0" encoding="UTF-8"?>
<svg id="Layer_2" data-name="Layer 2" xmlns="http://www.w3.org/2000/svg" viewBox="0 0 101.53 111.74">
  <defs>
    <style>
      .cls-1 {
        fill: #231f20;
      }
    </style>
  </defs>
  <g id="Layer_1-2" data-name="Layer 1">
    <g>
      <g>
        <g>
          <path class="cls-1" d="m3.62,35.54l.61-1.24c.74.36,1.23.13,1.49-.42.26-.52.2-1.03-.32-1.28-.53-.26-.98.23-1.51.79-.68.69-1.48,1.46-2.74.85-1.16-.57-1.46-1.74-.84-3,.6-1.22,1.83-1.67,3.13-1.03l-.6,1.22c-.67-.33-1.15-.15-1.41.38-.26.53-.15.95.32,1.18.54.26.97-.19,1.48-.73.67-.71,1.46-1.55,2.76-.91,1.2.59,1.5,1.8.87,3.09s-1.89,1.76-3.25,1.1Z"/>
          <path class="cls-1" d="m11.1,23.26l-1.78-1.61c-1.07-.97-1.16-2.37-.22-3.4.94-1.03,2.34-1.08,3.41-.11l1.78,1.61c1.06.96,1.14,2.36.21,3.39-.94,1.04-2.34,1.08-3.4.12Zm2.42-1.01c.32-.35.48-.9-.12-1.45l-1.85-1.68c-.59-.53-1.12-.38-1.47,0-.33.36-.47.9.13,1.45l1.85,1.68c.59.53,1.1.38,1.45,0Z"/>
          <path class="cls-1" d="m21.86,13.48l-2.46-4.02,1.18-.72,2.49,4.07c.41.67.93.68,1.39.4.43-.27.69-.76.29-1.43l-2.49-4.07,1.18-.72,2.46,4.02c.78,1.28.43,2.58-.75,3.31-1.18.73-2.49.45-3.28-.84Z"/>
          <path class="cls-1" d="m35.17,3.55l-1.42.4-.36-1.28,4.16-1.17.36,1.28-1.41.4,1.55,5.51-1.33.37-1.55-5.51Z"/>
          <path class="cls-1" d="m48.36,0h1.38s0,2.94,0,2.94h1.86s0-2.92,0-2.92h1.38s-.02,7.05-.02,7.05h-1.38s0-2.92,0-2.92h-1.86s0,2.91,0,2.91h-1.38s.02-7.05.02-7.05Z"/>
          <path class="cls-1" d="m64.35,1.73l3.8,1.11-.37,1.28-2.48-.73-.45,1.54,1.83.54-.34,1.15-1.83-.54-.45,1.54,2.48.73-.37,1.27-3.8-1.11,1.98-6.77Z"/>
          <path class="cls-1" d="m79.61,8.19l1.28.8-2.02,7.06-1.19-.75.43-1.38-1.74-1.09-1.07.97-1.19-.75,5.5-4.87Zm-1.12,4.57l.86-2.72-2.1,1.94,1.25.78Z"/>
          <path class="cls-1" d="m87.05,20.06l.92,1.03c-.61.54-.59,1.09-.18,1.54.39.43.87.58,1.31.19.44-.39.16-1-.15-1.7-.38-.89-.79-1.93.26-2.86.97-.86,2.16-.69,3.09.36.9,1.02.85,2.33-.24,3.29l-.9-1.02c.56-.5.58-1.01.19-1.45-.39-.44-.82-.5-1.22-.15-.45.4-.19.97.11,1.64.4.89.88,1.94-.21,2.9-1,.89-2.24.7-3.19-.37-.95-1.07-.91-2.42.23-3.43Z"/>
          <path class="cls-1" d="m99.08,31.21l-.65-1.32,1.2-.59,1.9,3.88-1.19.59-.65-1.32-5.14,2.52-.61-1.24,5.14-2.52Z"/>
        </g>
        <g>
          <path class="cls-1" d="m6.29,85.97l.85,1.13c-.68.5-.7,1.06-.32,1.56.36.48.84.67,1.32.31.49-.36.25-1.01-.01-1.75-.31-.95-.64-2.04.51-2.9,1.06-.79,2.27-.52,3.13.64.84,1.12.67,2.45-.53,3.34l-.84-1.12c.62-.46.68-.98.31-1.47-.36-.48-.8-.58-1.23-.26-.49.37-.28.98-.03,1.69.33.94.73,2.06-.46,2.95-1.1.82-2.35.53-3.23-.65-.88-1.18-.72-2.56.52-3.48Z"/>
          <path class="cls-1" d="m16.4,97.07l1.5-1.98c.89-1.17,2.3-1.39,3.45-.52,1.28.97,1.31,2.3.3,3.64v.02s-1.14-.86-1.14-.86l.06-.08c.64-.85.36-1.34-.04-1.64-.39-.3-.96-.39-1.47.27l-1.55,2.05c-.51.68-.26,1.19.13,1.49.52.4,1,.36,1.64-.48l.06-.07,1.13.85-.02.03c-1.1,1.45-2.32,1.74-3.62.75-1.15-.87-1.32-2.29-.43-3.47Z"/>
          <path class="cls-1" d="m31.05,100.44l2.15.82c1.35.52,1.93,1.74,1.33,3.31l-.07.19c-.4,1.05-1.12,1.57-1.97,1.62l.36,2.49-1.45-.55-.24-2.09-.69-.27-.67,1.74-1.32-.51,2.58-6.76Zm.55,4.52c.58.22,1.21.18,1.55-.72l.07-.19c.36-.93-.07-1.36-.67-1.59l-.66-.25-.95,2.49.66.25Z"/>
          <path class="cls-1" d="m45.85,104.23l1.54.13,1.49,7.38-1.44-.12-.26-1.45-2.1-.17-.52,1.39-1.43-.12,2.72-7.03Zm1.13,4.7l-.5-2.88-1,2.76,1.5.12Z"/>
          <path class="cls-1" d="m58.08,103.97l1.37-.3,2.49,3.77.66-4.47,1.37-.3,1.56,7.06-1.38.31-.9-4.08-.49,3-.94.21-1.7-2.49.9,4.06-1.38.31-1.56-7.06Z"/>
          <path class="cls-1" d="m72.63,99.19l1.93-1.09c1.24-.71,2.4-.63,3.06.53l.05.09c.39.68.34,1.28-.04,1.78.67-.07,1.23.17,1.63.87l.05.08c.66,1.16.13,2.2-1.11,2.91l-1.99,1.13-3.58-6.29Zm3.5,1.53c.4-.23.73-.59.4-1.17l-.06-.1c-.31-.54-.83-.42-1.29-.15l-.65.37.84,1.48.76-.43Zm1.36,2.49c.47-.27.84-.63.49-1.25l-.06-.1c-.3-.53-.82-.43-1.25-.19l-.76.43.86,1.51.71-.41Z"/>
          <path class="cls-1" d="m83.84,91.27l1-1,4.18,4.15,1.7-1.71.96.96-2.7,2.71-5.14-5.11Z"/>
          <path class="cls-1" d="m91.84,81.54l2.01-3.54,1.19.68-1.31,2.3,1.43.81.97-1.71,1.07.61-.97,1.71,1.43.81,1.31-2.31,1.18.67-2.01,3.54-6.3-3.58Z"/>
        </g>
      </g>
      <polygon class="cls-1" points="69.31 80.32 69.31 71.95 73.96 69.27 73.96 64.28 32.74 39.49 27.57 42.48 27.57 47.12 61.75 67.67 61.75 84.68 50.76 91.02 20.32 73.45 20.32 59.99 27.57 64.35 27.57 69.27 50.76 82.66 54 80.79 54 72.3 27.57 56.4 27.57 56.46 20.32 52.1 20.32 38.3 50.76 20.72 81.21 38.3 81.21 51.38 73.67 46.84 73.96 42.48 50.76 29.09 40.62 34.94 73.15 54.45 73.16 54.43 81.21 59.27 81.21 73.45 69.31 80.32"/>
    </g>
  </g>
</svg>