<?xml version="1.0" encoding="UTF-8"?>
<svg id="Layer_2" data-name="Layer 2" xmlns="http://www.w3.org/2000/svg" xmlns:xlink="http://www.w3.org/1999/xlink" viewBox="0 0 96.67 111.63">
  <defs>
    <style>
      .cls-1 {
        fill: url(#linear-gradient);
      }
    </style>
    <linearGradient id="linear-gradient" x1="48.34" y1="3.84" x2="48.34" y2="159.25" gradientUnits="userSpaceOnUse">
      <stop offset=".34" stop-color="#53ff3f"/>
      <stop offset="1" stop-color="#000"/>
    </linearGradient>
  </defs>
  <g id="Layer_1-2" data-name="Layer 1">
    <polygon class="cls-1" points="77.78 94.62 77.78 81.34 85.17 77.08 85.17 69.17 19.72 29.8 11.5 34.55 11.5 41.91 65.78 74.55 65.78 101.56 48.34 111.63 0 83.72 0 62.36 11.5 69.28 11.5 77.08 48.34 98.35 53.47 95.38 53.47 81.89 11.5 56.65 11.5 56.74 0 49.82 0 27.91 48.34 0 96.67 27.91 96.67 48.68 84.7 41.48 85.17 34.55 48.34 13.28 32.22 22.58 83.89 53.55 83.89 53.53 96.67 61.21 96.67 83.72 77.78 94.62"/>
  </g>
</svg>