<?xml version="1.0" encoding="UTF-8"?>
<svg id="Layer_2" data-name="Layer 2" xmlns="http://www.w3.org/2000/svg" xmlns:xlink="http://www.w3.org/1999/xlink" viewBox="0 0 268.63 198">
  <defs>
    <style>
      .cls-1 {
        clip-path: url(#clippath-2);
      }

      .cls-2 {
        clip-path: url(#clippath-1);
      }

      .cls-3 {
        fill: #a25e18;
      }

      .cls-4 {
        clip-path: url(#clippath);
      }

      .cls-5 {
        fill: none;
      }

      .cls-6 {
        fill: #f2f1ea;
      }
    </style>
    <clipPath id="clippath">
      <rect class="cls-5" x="35.84" width="198" height="198"/>
    </clipPath>
    <clipPath id="clippath-1">
      <rect class="cls-5" x="42.48" y="6.64" width="184" height="184"/>
    </clipPath>
    <clipPath id="clippath-2">
      <rect class="cls-5" x="110.97" y="33.58" width="46.97" height="42"/>
    </clipPath>
  </defs>
  <g id="Layer_1-2" data-name="Layer 1">
    <g>
      <g class="cls-4">
        <path d="m134.84,198c-54.57,0-99-44.43-99-99S80.27,0,134.84,0s99,44.43,99,99-44.43,99-99,99Zm0-196.54c-53.79,0-97.54,43.74-97.54,97.54s43.74,97.54,97.54,97.54,97.54-43.74,97.54-97.54S188.64,1.46,134.84,1.46Z"/>
      </g>
      <g class="cls-2">
        <path class="cls-3" d="m134.48,190.64c-50.71,0-92-41.29-92-92S83.77,6.64,134.48,6.64s92,41.29,92,92-41.29,92-92,92Zm0-182.64c-49.98,0-90.64,40.66-90.64,90.64s40.66,90.64,90.64,90.64,90.64-40.65,90.64-90.64S184.47,7.99,134.48,7.99Z"/>
      </g>
      <path d="m143.99,57.36c0,.63-.06,1.26-.19,1.88-.12.62-.3,1.22-.54,1.81s-.54,1.14-.89,1.67-.74,1.02-1.19,1.46-.93.84-1.45,1.2c-.53.35-1.07.65-1.66.89-.58.24-1.18.43-1.79.55-.61.13-1.24.19-1.86.19s-1.25-.06-1.87-.19c-.61-.12-1.21-.3-1.79-.55s-1.13-.54-1.65-.89c-.53-.35-1.01-.75-1.45-1.2-.44-.45-.84-.94-1.19-1.46s-.64-1.08-.89-1.67c-.24-.58-.42-1.19-.54-1.81s-.18-1.25-.18-1.88.06-1.26.18-1.88c.13-.63.3-1.22.54-1.81.24-.58.54-1.14.89-1.67s.74-1.01,1.19-1.46c.45-.45.93-.85,1.45-1.2.52-.35,1.07-.65,1.65-.89.58-.24,1.18-.43,1.79-.55.62-.13,1.24-.18,1.87-.18s1.25.06,1.86.18,1.21.31,1.79.55c.58.24,1.13.54,1.66.89.52.35,1.01.75,1.45,1.2s.84.93,1.19,1.46.65,1.08.89,1.67c.24.59.42,1.19.54,1.81.13.62.19,1.24.19,1.88Z"/>
      <g class="cls-1">
        <path d="m153.31,39.2h-6.89l-1.36-3.94c-.35-1.03-1.31-1.71-2.39-1.71h-16.47c-1.07,0-2.03.69-2.39,1.71l-1.36,3.94h-6.9c-2.38,0-4.31,1.94-4.31,4.34v27.64c0,2.4,1.93,4.35,4.31,4.35h37.77c2.39,0,4.31-1.95,4.31-4.35v-27.64c0-2.4-1.93-4.34-4.31-4.34Zm-18.88,31.36c-7.22,0-13.09-5.92-13.09-13.19s5.87-13.19,13.09-13.19,13.08,5.92,13.08,13.19-5.87,13.19-13.08,13.19Z"/>
      </g>
      <path d="m4.07,85.88h260.49c1.08,0,2.11.43,2.88,1.19.77.77,1.19,1.8,1.19,2.88v34.74c0,1.08-.43,2.12-1.19,2.89s-1.8,1.19-2.88,1.19H4.07c-1.08,0-2.11-.43-2.88-1.19-.76-.77-1.19-1.8-1.19-2.89v-34.74c0-1.08.43-2.11,1.19-2.88.77-.77,1.8-1.19,2.88-1.19"/>
      <path class="cls-6" d="m8.48,118.43v-24.23h2.94v12.02h.27l10.9-12.02h3.83l-10.19,10.94,10.19,13.29h-3.56l-8.42-11.27-3.02,3.42v7.85h-2.94Z"/>
      <path class="cls-6" d="m33.24,94.2h3.35l6.73,11.31h.27l6.73-11.31h3.35l-8.75,14.25v9.98h-2.94v-9.98l-8.75-14.25Z"/>
      <path class="cls-6" d="m62.59,118.43v-24.23h2.94v21.63h11.25v2.6h-14.19Z"/>
      <path class="cls-6" d="m89.39,94.2v24.23h-2.94v-24.23h2.94Z"/>
      <path class="cls-6" d="m100.38,118.43v-24.23h14.63v2.6h-11.69v8.19h10.92v2.6h-10.92v8.23h11.88v2.6h-14.81Z"/>
      <path class="cls-6" d="m139.93,118.43v-24.23h8.19c1.89,0,3.44.33,4.65.98,1.22.64,2.13,1.52,2.71,2.65.58,1.11.88,2.39.88,3.81,0,1.61-.37,3.02-1.1,4.21-.74,1.2-1.89,2.06-3.44,2.58l5.48,10h-3.4l-5.1-9.48c-.21.02-.42.02-.63.02h-5.29v9.46h-2.94Zm2.94-12.1h5.19c1.94,0,3.32-.42,4.15-1.25.83-.84,1.25-1.99,1.25-3.44s-.42-2.63-1.25-3.5c-.82-.89-2.22-1.33-4.19-1.33h-5.15v9.52Z"/>
      <path class="cls-6" d="m166.34,118.43v-24.23h14.63v2.6h-11.69v8.19h10.92v2.6h-10.92v8.23h11.88v2.6h-14.81Z"/>
      <path class="cls-6" d="m210.6,94.2v24.23h-2.83l-13.21-19.02h-.23v19.02h-2.94v-24.23h2.83l13.25,19.06h.23v-19.06h2.9Z"/>
      <path class="cls-6" d="m221.59,118.43v-24.23h14.63v2.6h-11.69v8.19h10.92v2.6h-10.92v8.23h11.88v2.6h-14.81Z"/>
      <path class="cls-6" d="m246.64,118.43v-24.23h14.63v2.6h-11.69v8.19h10.92v2.6h-10.92v8.23h11.88v2.6h-14.81Z"/>
      <path d="m72.42,139.37h3.71c1.18,0,2.09.28,2.73.83.65.56.98,1.34.98,2.35s-.33,1.88-.98,2.46c-.64.58-1.55.88-2.73.88h-2.15v2.81h-1.56v-9.33Zm1.56,1.42v3.69h2.08c1.5,0,2.25-.63,2.25-1.88s-.75-1.81-2.25-1.81h-2.08Z"/>
      <path d="m91.53,148.71h-1.56v-3.88h-4.96v3.88h-1.56v-9.33h1.56v4.06h4.96v-4.06h1.56v9.33Z"/>
      <path d="m96.69,140.68c.96-.9,2.13-1.35,3.52-1.35s2.57.45,3.52,1.35c.96.91,1.44,2.02,1.44,3.35s-.48,2.46-1.44,3.38c-.95.91-2.12,1.35-3.52,1.35s-2.56-.45-3.52-1.35c-.95-.92-1.42-2.04-1.42-3.38s.47-2.45,1.42-3.35Zm3.54.06c-.93,0-1.72.32-2.38.96-.66.63-.98,1.41-.98,2.33s.32,1.72.98,2.35c.67.64,1.46.96,2.38.96s1.69-.32,2.33-.96c.65-.64.98-1.42.98-2.35s-.33-1.71-.98-2.33c-.64-.64-1.42-.96-2.33-.96Z"/>
      <path d="m115.27,140.79h-2.96v7.92h-1.58v-7.92h-2.94v-1.42h7.48v1.42Z"/>
      <path d="m119.31,140.68c.96-.9,2.13-1.35,3.52-1.35s2.57.45,3.52,1.35c.96.91,1.44,2.02,1.44,3.35s-.48,2.46-1.44,3.38c-.95.91-2.12,1.35-3.52,1.35s-2.56-.45-3.52-1.35c-.95-.92-1.42-2.04-1.42-3.38s.47-2.45,1.42-3.35Zm3.54.06c-.93,0-1.72.32-2.38.96-.66.63-.98,1.41-.98,2.33s.32,1.72.98,2.35c.67.64,1.46.96,2.38.96s1.69-.32,2.33-.96c.65-.64.98-1.42.98-2.35s-.33-1.71-.98-2.33c-.64-.64-1.42-.96-2.33-.96Z"/>
      <path d="m137.89,144.12h1.38v3.44c-.47.36-1.04.66-1.69.88-.66.22-1.3.33-1.94.33-1.38,0-2.54-.45-3.48-1.35-.95-.92-1.42-2.04-1.42-3.38s.48-2.45,1.44-3.35c.96-.9,2.15-1.35,3.56-1.35.65,0,1.3.12,1.94.35.64.24,1.19.56,1.65.96l-.9,1.15c-.77-.71-1.66-1.06-2.69-1.06-.96,0-1.77.32-2.42.96-.66.64-.98,1.43-.98,2.35s.32,1.72.98,2.35c.67.64,1.47.96,2.42.96.72,0,1.44-.21,2.15-.63v-2.6Z"/>
      <path d="m149.46,148.71l-1.71-2.83c-.08.02-.22.02-.42.02h-2.23v2.81h-1.56v-9.33h3.79c1.18,0,2.09.28,2.75.83.67.56,1,1.34,1,2.35,0,.75-.17,1.39-.5,1.9-.33.52-.81.89-1.44,1.13l2.1,3.13h-1.79Zm-4.35-4.23h2.23c1.5,0,2.25-.63,2.25-1.88s-.75-1.81-2.25-1.81h-2.23v3.69Z"/>
      <path d="m161.26,146.6h-4.71l-.9,2.1h-1.63l4.1-9.33h1.63l4.08,9.33h-1.69l-.9-2.1Zm-.6-1.4l-1.75-4.15-1.77,4.15h3.52Z"/>
      <path d="m167.13,139.37h3.71c1.18,0,2.09.28,2.73.83.65.56.98,1.34.98,2.35s-.33,1.88-.98,2.46c-.64.58-1.55.88-2.73.88h-2.15v2.81h-1.56v-9.33Zm1.56,1.42v3.69h2.08c1.5,0,2.25-.63,2.25-1.88s-.75-1.81-2.25-1.81h-2.08Z"/>
      <path d="m186.23,148.71h-1.56v-3.88h-4.96v3.88h-1.56v-9.33h1.56v4.06h4.96v-4.06h1.56v9.33Z"/>
      <path d="m194.58,145.6v3.1h-1.56v-3.06l-3.48-6.27h1.58l2.67,4.54,2.6-4.54h1.6l-3.42,6.23Z"/>
    </g>
  </g>
</svg>