<?xml version="1.0" encoding="UTF-8"?>
<svg id="Layer_2" data-name="Layer 2" xmlns="http://www.w3.org/2000/svg" xmlns:xlink="http://www.w3.org/1999/xlink" viewBox="0 0 183.44 193.56">
  <defs>
    <style>
      .cls-1 {
        letter-spacing: .01em;
      }

      .cls-2 {
        font-size: 18.97px;
        letter-spacing: .6em;
      }

      .cls-2, .cls-3 {
        font-family: ContrailOne-Regular, 'Contrail One';
      }

      .cls-2, .cls-3, .cls-4 {
        fill: #eaeaea;
      }

      .cls-5 {
        letter-spacing: .01em;
      }

      .cls-3 {
        font-size: 8.69px;
        letter-spacing: .6em;
      }

      .cls-6 {
        fill: url(#linear-gradient);
      }

      .cls-7 {
        letter-spacing: .02em;
      }

      .cls-8 {
        letter-spacing: 0em;
      }

      .cls-4 {
        font-family: Karantina-Regular, Karantina;
        font-size: 69.38px;
      }
    </style>
    <linearGradient id="linear-gradient" x1="83.54" y1="3.84" x2="83.54" y2="159.25" gradientUnits="userSpaceOnUse">
      <stop offset=".34" stop-color="#53ff3f"/>
      <stop offset="1" stop-color="#000"/>
    </linearGradient>
  </defs>
  <g id="Layer_1-2" data-name="Layer 1">
    <g>
      <polygon class="cls-6" points="112.99 94.62 112.99 81.34 120.38 77.08 120.38 69.17 54.92 29.8 46.71 34.55 46.71 41.91 100.99 74.55 100.99 101.56 83.54 111.63 35.21 83.72 35.21 62.36 46.71 69.28 46.71 77.08 83.54 98.35 88.68 95.38 88.68 81.89 46.71 56.65 46.71 56.74 35.21 49.82 35.21 27.91 83.54 0 131.88 27.91 131.88 48.68 119.91 41.48 120.38 34.55 83.54 13.28 67.43 22.58 119.1 53.55 119.1 53.53 131.88 61.21 131.88 83.72 112.99 94.62"/>
      <g>
        <text class="cls-2" transform="translate(6.43 117.95)"><tspan x="0" y="0">SOUTHEAST</tspan></text>
        <text class="cls-4" transform="translate(0 173.68)"><tspan class="cls-1" x="0" y="0">SC</tspan><tspan class="cls-7" x="42.05" y="0">R</tspan><tspan class="cls-5" x="64.67" y="0">AMB</tspan><tspan class="cls-8" x="141.2" y="0">L</tspan><tspan class="cls-1" x="161.32" y="0">E</tspan></text>
        <text class="cls-3" transform="translate(2.9 190.91)"><tspan x="0" y="0">SUB ONLY SUPERFIGHTS</tspan></text>
      </g>
    </g>
  </g>
</svg>