<?xml version="1.0" standalone="no"?>
<!DOCTYPE svg PUBLIC "-//W3C//DTD SVG 1.1//EN" "http://www.w3.org/Graphics/SVG/1.1/DTD/svg11.dtd">
<svg xmlns="http://www.w3.org/2000/svg" viewBox="0 0 155.69 130.79" width="155.69000244140625" height="130.7899932861328"><defs><style>.d{fill:#f38c20;}.e{fill:#ef4723;}.f{fill:#f0a7ca;}.g{fill:#9d933d;}</style></defs><g id="a"/><g id="b"><g id="c"><g><g><path class="e" d="M32.98,34.98l-6.99-5.14,.91-1.23s.19-.03,.26-.04c1.34-.04,2.65-.09,3.99-.13l-.96-3.38s-.22-.63-.17-.7l.91-1.23,6.99,5.14-.99,1.34-4.29-3.15c.34,1.32,.64,2.62,1.1,3.88-1.34,.04-2.71,.1-4.05,.14l4.29,3.15-.99,1.35Z"/><path class="e" d="M40.31,25.9l-6.18-6.15,1.19-1.19,6.18,6.15-1.19,1.19Z"/><path class="e" d="M42.25,19.53c1.05,0,2.14-.11,3-.77,.38-.29,.92-.94,.92-1.46-.1-.7-4.29,2.79-6.24,.26-1.05-1.36-.34-3,.92-3.97,1.34-1.04,2.51-1.11,4.15-1.12l-.26,2.06c-.93,.02-1.7,.15-2.48,.72-.65,.48-.99,1.09-.88,1.24,.13,.17,1.37-.38,1.53-.47,1.53-.73,3.4-1.41,4.63,.18,1.16,1.5,.45,3.23-.94,4.3-1.4,1.08-2.96,1.1-4.63,1.12l.29-2.08Z"/><path class="e" d="M49.08,8.27l2.49,4.77c.31,.6,1.24,.49,2.02,.09,.79-.41,1.42-1.14,1.08-1.81l-2.45-4.68,1.51-.79,2.39,4.58c.94,1.79,.37,3.75-1.46,4.71-1.75,.91-3.71,.37-4.63-1.38l-2.45-4.68,1.51-.79Z"/><path class="e" d="M60.5,12.32l-2.53-8.3,1.51-.46s.29,.15,.33,.19c1.87,1.25,3.71,2.52,5.57,3.78l-1.61-5.27,1.6-.49,2.52,8.28-1.58,.48-5.79-3.87,1.58,5.19-1.6,.49Z"/><path class="e" d="M70.69,9.58l-1-8.72,2.42-.28c2.33-.27,4.9,.82,5.2,3.38,.4,3.47-1.7,5.05-4.97,5.43l-1.64,.19Zm1.42-2.37c1.2-.14,3.78-.94,3.59-2.55-.2-1.76-2.39-2.02-3.77-1.86l-.32,.04,.5,4.38Z"/><path class="e" d="M80.69,0l6.43,.39-.13,2.17-4.77-.29-.06,.9,4.25,.26-.13,2.17-4.25-.26-.08,1.27,4.77,.29-.13,2.17-6.43-.39,.53-8.68Z"/><path class="e" d="M92.87,1.27c2.01,.46,4.21,1.58,3.66,4-.21,.94-1.04,1.62-1.92,1.98l2.69,3.92-2.69-.61c-.07-.02-1.69-2.74-1.88-3.05-.16,.06-1.07-.05-1.27-.07l-.52,2.28-1.64-.37,1.92-8.46,1.66,.38Zm-.93,4.03c.75,.09,2.36,.16,2.92-.42-.24-.75-1.63-1.3-2.34-1.46l-.15-.03-.43,1.91Z"/><path class="e" d="M100.31,8.92c.52,.91,1.17,1.8,2.17,2.21,.44,.18,1.27,.32,1.73,.06,.56-.43-4.56-2.31-3.35-5.27,.65-1.59,2.43-1.8,3.9-1.2,1.57,.64,2.22,1.62,3.04,3.03l-1.92,.8c-.48-.79-.98-1.4-1.87-1.79-.75-.32-1.44-.31-1.51-.14-.08,.2,1.02,1,1.18,1.09,1.4,.95,2.92,2.24,2.16,4.09-.72,1.76-2.57,2.01-4.19,1.35-1.64-.67-2.44-2.01-3.29-3.45l1.95-.79Z"/><path class="e" d="M111.07,7.74l5.73,3.49-1.13,1.86-2.12-1.29-3.38,5.56-1.45-.88,3.38-5.56-2.16-1.31,1.13-1.86Z"/><path class="e" d="M122.61,15.74c1.89,1.63,2.17,4.26,.52,6.17-1.02,1.18-2.33,1.79-3.9,1.49-.92-.17-1.71-.53-2.32-1.06-.61-.53-1.07-1.25-1.37-2.13-.52-1.5-.1-2.88,.92-4.06,1.68-1.95,4.22-2.08,6.16-.41Zm-4.27,4.95c.87,.75,2.66,1.08,3.5,.11,.82-.95,.19-2.68-.65-3.41-.87-.75-2.64-1.09-3.46-.14-.84,.97-.28,2.67,.61,3.44Z"/><path class="e" d="M129.94,23.18c1.6,1.92,1.46,4.55-.48,6.18-1.2,1-2.59,1.39-4.09,.84-.88-.32-1.6-.79-2.12-1.42-.52-.62-.85-1.4-1.01-2.33-.27-1.57,.36-2.86,1.56-3.86,1.97-1.65,4.5-1.38,6.14,.59Zm-5.01,4.2c.74,.88,2.46,1.5,3.44,.67,.96-.81,.62-2.62-.09-3.48-.74-.88-2.43-1.5-3.4-.69-.99,.83-.71,2.59,.05,3.49Z"/><path class="e" d="M126.51,32.92l7.51-4.54,1.26,2.08c1.21,2.01,1.29,4.8-.91,6.13-2.99,1.81-5.3,.56-7-2.26l-.86-1.42Zm2.75,.31c.63,1.04,2.43,3.04,3.82,2.2,1.52-.92,.84-3.02,.12-4.21l-.17-.28-3.78,2.28Z"/></g><g><path class="e" d="M25.6,99.02l7.14-4.95,.87,1.26s-.04,.19-.05,.26c-.4,1.28-.78,2.53-1.17,3.82l3.51,.2s.67,0,.71,.06l.87,1.26-7.14,4.95-.95-1.37,4.38-3.04c-1.36-.1-2.69-.24-4.03-.22,.4-1.28,.79-2.6,1.19-3.88l-4.38,3.04-.95-1.37Z"/><path class="e" d="M33.44,109.37l6.37-5.97,1.15,1.23-6.37,5.97-1.15-1.23Z"/><path class="e" d="M40.18,111.55c.23,1.02,.58,2.06,1.42,2.76,.37,.3,1.12,.69,1.63,.57,.66-.25-3.67-3.56-1.63-6.03,1.09-1.32,2.85-1,4.08,0,1.31,1.08,1.64,2.2,2.01,3.8l-2.07,.2c-.23-.9-.53-1.62-1.25-2.26-.62-.53-1.29-.72-1.4-.58-.14,.17,.67,1.25,.8,1.39,1.05,1.32,2.13,3,.85,4.55-1.21,1.46-3.05,1.15-4.4,.04-1.37-1.13-1.73-2.64-2.12-4.26l2.09-.18Z"/><path class="e" d="M52.32,113.83l-2.66,4.67c-.33,.59,.26,1.31,1.02,1.74,.77,.44,1.73,.58,2.1-.07l2.61-4.59,1.48,.84-2.55,4.48c-1,1.76-2.95,2.34-4.75,1.32-1.72-.98-2.32-2.92-1.34-4.64l2.61-4.59,1.48,.84Z"/><path class="e" d="M56.83,125.87l2.84-8.2,1.49,.51s.14,.29,.16,.35c.78,2.11,1.52,4.22,2.28,6.33l1.8-5.21,1.58,.55-2.83,8.17-1.56-.54-2.4-6.53-1.77,5.12-1.58-.55Z"/><path class="e" d="M68.43,129.47l1.36-8.66,2.4,.38c2.31,.36,4.5,2.1,4.11,4.64-.54,3.45-2.98,4.41-6.23,3.91l-1.63-.26Zm2-1.9c1.2,.19,3.89,.1,4.14-1.51,.27-1.75-1.76-2.58-3.14-2.8l-.32-.05-.68,4.35Z"/><path class="e" d="M79.28,122.1l6.44-.1,.03,2.17-4.77,.08v.9l4.27-.07,.04,2.17-4.25,.07,.02,1.27,4.77-.08,.04,2.17-6.44,.1-.14-8.69Z"/><path class="e" d="M90.08,121.5c2.04-.36,4.5-.18,4.93,2.26,.17,.95-.33,1.89-1,2.57l4,2.57-2.71,.48c-.08,.01-2.62-1.87-2.92-2.08-.12,.11-1.01,.37-1.2,.43l.41,2.31-1.66,.3-1.52-8.55,1.67-.3Zm.71,4.07c.73-.21,2.24-.77,2.53-1.52-.51-.59-2.01-.56-2.72-.43l-.15,.03,.34,1.93Z"/><path class="e" d="M100.2,124.86c.99,.33,2.07,.57,3.09,.2,.45-.16,1.17-.61,1.33-1.1,.13-.7-4.94,1.31-6.01-1.71-.57-1.62,.61-2.96,2.11-3.49,1.6-.57,2.73-.27,4.29,.24l-.9,1.88c-.89-.27-1.66-.39-2.58-.09-.77,.26-1.28,.73-1.22,.9,.07,.2,1.42,.07,1.6,.03,1.68-.22,3.67-.28,4.34,1.61,.63,1.79-.58,3.21-2.23,3.79-1.67,.59-3.16,.13-4.75-.38l.92-1.89Z"/><path class="e" d="M106.05,116.85l5.89-3.19,1.04,1.91-2.18,1.18,3.1,5.72-1.49,.81-3.1-5.72-2.22,1.2-1.04-1.91Z"/><path class="e" d="M116.77,110.13c1.97-1.53,4.6-1.28,6.15,.71,.96,1.23,1.29,2.64,.69,4.11-.35,.87-.85,1.57-1.5,2.07s-1.43,.8-2.37,.92c-1.58,.22-2.84-.47-3.8-1.7-1.58-2.03-1.2-4.55,.82-6.12Zm4.01,5.17c.91-.7,1.59-2.4,.8-3.41-.77-.99-2.59-.72-3.48-.04-.91,.7-1.59,2.38-.82,3.37,.79,1.02,2.56,.8,3.49,.08Z"/><path class="e" d="M123.48,104.03c1.71-1.82,4.34-1.99,6.19-.27,1.14,1.07,1.69,2.4,1.33,3.95-.21,.92-.6,1.69-1.15,2.28s-1.29,1.02-2.19,1.28c-1.52,.46-2.88-.01-4.02-1.08-1.88-1.76-1.9-4.3-.16-6.17Zm4.77,4.47c.79-.84,1.19-2.62,.25-3.5-.92-.86-2.67-.3-3.44,.51-.79,.84-1.19,2.59-.28,3.45,.94,.88,2.66,.39,3.46-.47Z"/><path class="e" d="M134.21,105l-7.23-4.97,1.38-2.01c1.33-1.93,3.84-3.16,5.96-1.7,2.88,1.98,2.69,4.6,.83,7.31l-.94,1.36Zm-.85-2.63c.69-1,1.77-3.47,.43-4.38-1.46-1.01-3.09,.48-3.88,1.62l-.18,.26,3.63,2.5Z"/></g><g><path class="d" d="M68.23,41.21c-.3-.43-.82-.8-1.57-1.09-.75-.3-1.76-.51-3.04-.65s-2.89-.21-4.85-.21h-1.71c-1.37,0-2.62,.39-3.75,1.16-1.14,.77-2,1.77-2.59,3l-5.05,10.56-3.28,6.85-3.42-6.31-6.82-12.6c-.5-.96-1.16-1.64-1.98-2.05-.82-.41-1.8-.61-2.94-.61h-3.48c-.98,0-1.98,.06-2.99,.14,4.03,4,6.83,9.69,11.31,15.06,1.94,2.33,4.2,4.6,7.01,6.65,2.14,1.56,4.71,3.11,7.6,4.68l4.44-8.92v11.22c3.94,1.96,8.27,3.93,12.77,5.96v-21.47c0-.75,.04-1.4,.1-2,.11-1.12,.32-2.02,.65-2.64,.5-.96,1.05-1.67,1.64-2.15,.59-.48,1.14-.89,1.64-1.23,.5-.34,.75-.94,.75-1.81,0-.59-.15-1.1-.44-1.54Z"/><path class="e" d="M79.22,94.97c-.57-.45-1.56-.68-2.97-.68-.82,0-1.7,.05-2.63,.14-.93,.09-1.85,.08-2.76-.03-.91-.11-1.79-.4-2.63-.85-.84-.46-1.58-1.24-2.22-2.36-.64-1.12-1.15-2.63-1.54-4.54-.1-.5-.19-1.05-.26-1.63-.21-1.62-.32-3.53-.32-5.74v-5.22c-4.5-2.02-8.83-4-12.77-5.96v11.18c0,.24,0,.46,0,.7,.04,4.6,.47,8.48,1.29,11.63,.86,3.3,2.02,5.95,3.48,7.95,1.46,2,3.14,3.42,5.05,4.27,1.91,.84,3.89,1.26,5.94,1.26s3.88-.29,5.49-.85c1.62-.57,2.99-1.27,4.13-2.12,1.14-.84,2.01-1.74,2.63-2.7,.62-.96,.92-1.82,.92-2.59s-.29-1.39-.85-1.84Z"/><path class="e" d="M39.09,61.12c-2.81-2.05-5.06-4.32-7.01-6.65-4.48-5.38-7.29-11.06-11.31-15.06-1.63,.14-3.3,.38-5.03,.74-1.15,.24-2.25,.58-3.31,.97-1.54,.56-3,1.25-4.37,2.11-1.11,.69-2.11,1.51-3.04,2.44-1.02,1.02-1.93,2.18-2.73,3.49-1.52,2.5-2.29,5.64-2.29,9.42,0,.96,.17,1.81,.51,2.56,.34,.75,.81,1.4,1.4,1.95,.42,.38,.88,.68,1.36,.93,.2,.1,.4,.22,.62,.3,.73,.27,1.46,.41,2.19,.41,.77,0,1.52-.15,2.25-.44,.73-.3,1.38-.75,1.95-1.37,.57-.61,1.02-1.4,1.36-2.36,.34-.96,.51-2.12,.51-3.48s-.01-2.66-.03-4.03c-.02-1.36,.04-2.6,.21-3.72,.16-1.11,.45-2.02,.89-2.73,.43-.71,1.1-1.06,2.01-1.06s1.71,.47,2.39,1.4c.68,.93,1.02,2.67,1.02,5.22v22.66c0,1.41-.14,2.55-.4,3.45-.13,.47-.29,.89-.49,1.22-.59,.98-1.24,1.72-1.94,2.22-.71,.5-1.35,.96-1.95,1.36-.59,.41-.89,1.09-.89,2.05,0,.46,.25,.85,.75,1.19,.5,.34,1.17,.63,2.01,.85,.84,.23,1.8,.4,2.87,.51,1.07,.11,2.17,.17,3.31,.17s2.17-.06,3.24-.17c1.07-.11,2.02-.29,2.87-.51,.84-.23,1.51-.51,2.01-.85,.5-.34,.75-.74,.75-1.19,0-.96-.3-1.64-.89-2.05-.59-.41-1.24-.86-1.94-1.36-.71-.5-1.35-1.24-1.95-2.22-.01-.02-.02-.05-.03-.07-.57-.98-.86-2.51-.86-4.61v-17.75l10.45,18.84c.18,.31,.38,.58,.59,.8,.23,.24,.49,.44,.77,.59,.55,.3,1.11,.44,1.71,.44,.64,0,1.22-.15,1.74-.44,.24-.14,.46-.31,.65-.52,.23-.24,.44-.53,.61-.88l5.04-10.13c-2.89-1.56-5.46-3.12-7.6-4.68Z"/><path class="d" d="M100.49,51.21c-.82,0-1.81,.14-2.97,.41-1.16,.27-2.29,.66-3.38,1.16-1.09,.5-2.03,1.1-2.8,1.81-.77,.71-1.16,1.47-1.16,2.29,0,.91,.19,1.46,.58,1.64,.39,.18,.84,.38,1.36,.58,.52,.21,1.01,.59,1.47,1.16,.46,.57,.75,1.67,.89,3.31v7.99c-.27,1.05-.69,2-1.26,2.87-.57,.87-1.22,1.6-1.95,2.22-.73,.61-1.49,1.08-2.29,1.4-.8,.32-1.56,.48-2.29,.48-1,0-1.83-.33-2.49-.99-.66-.66-.99-1.72-.99-3.17v-17.14c0-2.23-.48-3.79-1.43-4.68-.96-.89-2.62-1.33-4.98-1.33-.82,0-1.81,.14-2.97,.41-1.16,.27-2.29,.66-3.38,1.16-1.09,.5-2.03,1.1-2.8,1.81-.77,.71-1.16,1.47-1.16,2.29,0,.91,.19,1.46,.58,1.64,.39,.18,.84,.38,1.37,.58,.52,.21,1.01,.59,1.47,1.16,.45,.57,.75,1.67,.89,3.31v12.36c0,.42,.02,.83,.04,1.23,6.09,2.74,12.26,5.57,18,8.55,2.1-1.15,3.99-2.74,5.66-4.8,0,2.55,.5,4.31,1.5,5.29,.94,.92,2.58,1.4,4.89,1.46-3.05-11.9-.48-25.49,5.13-34.46-.16-.24-.33-.46-.53-.65-.96-.89-2.62-1.33-4.98-1.33Z"/><path class="f" d="M100.87,87.66c.15,0,.28,.01,.43,.01,1.37,0,2.65-.21,3.86-.61,1.21-.41,2.25-.92,3.14-1.54,.89-.61,1.59-1.25,2.12-1.91,.52-.66,.78-1.22,.78-1.67,0-.59-.1-1.02-.31-1.3-.21-.27-.47-.47-.78-.58-.32-.11-.67-.23-1.06-.34-.39-.11-.74-.34-1.06-.68-.32-.34-.58-.85-.79-1.54-.21-.68-.31-1.64-.31-2.87v-17.41c0-1.77-.3-3.1-.9-4.03-5.61,8.97-8.17,22.57-5.13,34.46Z"/><path class="e" d="M73.49,84.77c1.8,1.89,4.36,2.83,7.68,2.83,2.73,0,5.2-.58,7.41-1.74,.08-.04,.16-.1,.25-.15-5.73-2.98-11.91-5.82-18-8.55,.17,3.38,1.05,5.92,2.66,7.61Z"/><path class="g" d="M99.87,49.38c.09-.02,.19-.02,.27-.04,1.46-.3,2.81-.69,4.06-1.19,1.25-.5,2.41-1.07,3.48-1.71,1.07-.64,2.08-1.27,3.04-1.91,.64-.41,1.16-.61,1.57-.61,.68,0,1.04,.52,1.08,1.53,1.77-1.1,3.66-1.82,5.63-2.05,3.21-.38,5.21,5.76,7.2,12.06h2.75c1.18,0,2.04-.26,2.56-.79,.52-.52,.8-1.09,.82-1.71,.02-.61-.19-1.18-.65-1.71-.46-.52-1.09-.79-1.91-.79-.5,0-.96,.09-1.37,.27l-2.53,.61v-8.53c0-4.37-1.8-6.55-5.39-6.55-1.27,0-2.44,.22-3.48,.65-1.05,.43-2.07,.91-3.07,1.43-1,.52-2,1-3,1.43-1,.43-2.09,.65-3.28,.65-1.32,0-2.5-.13-3.55-.38-1.05-.25-2.06-.53-3.04-.85-.98-.32-1.95-.6-2.9-.85-.96-.25-2-.38-3.14-.38-2.46,0-4.31,.61-5.56,1.84-1.25,1.23-1.87,2.58-1.84,4.06,0,.41,.06,.8,.17,1.19,1.03,.46,2.06,.92,3.08,1.39,2.65,1.22,5.93,1.99,9.01,2.92Z"/><path class="g" d="M95.37,49.78c1.63,0,3.12-.14,4.51-.4-3.08-.94-6.37-1.7-9.01-2.92-1.02-.47-2.05-.93-3.08-1.39,.27,1.02,.86,1.98,1.78,2.87,1.27,1.23,3.21,1.84,5.8,1.84Z"/><path class="f" d="M132.88,80.57c-.3-.64-.79-.96-1.47-.96-.37,0-.71,.09-1.02,.27-.63,.31-1.17,.48-1.62,.53-.07,0-.15,.02-.22,.02-1.09,0-1.81-.75-2.15-2.25-.24-1.06-.39-2.4-.46-4-.03-.67-.05-1.38-.05-2.15v-16.59h.32c-1.98-6.3-3.99-12.44-7.2-12.06-1.97,.23-3.86,.95-5.63,2.05,0,.06,.02,.11,.02,.18v5.8h-2.8c-.68,0-1.21,.21-1.57,.61-.36,.41-.56,.86-.58,1.37,0,.05,0,.11,0,.16,.02,.44,.18,.85,.5,1.24,.36,.43,.91,.65,1.64,.65h2.8v22.19c0,1.77,.26,3.27,.79,4.47,.52,1.21,1.23,2.18,2.12,2.94,.89,.75,1.89,1.3,3,1.64,1.11,.34,2.26,.51,3.45,.51,.74,0,1.47-.07,2.2-.18,.38-.06,.77-.11,1.15-.2,1.09-.25,2.1-.59,3.04-1.02,.38-.17,.71-.37,1.05-.56,.49-.29,.95-.58,1.34-.91,.66-.55,1.13-1.11,1.4-1.71,.27-.73,.26-1.41-.03-2.05Z"/><path class="g" d="M148.48,71.66v-16.28h3.14c1.32,0,2.24-.32,2.76-.96,.52-.64,.75-1.31,.68-2.01-.07-.7-.41-1.3-1.02-1.77-.61-.48-1.42-.53-2.42-.17l-3.14,1.02v-5.53c0-.77-.19-1.34-.58-1.71-.39-.36-.9-.55-1.54-.55-.82,0-1.73,.32-2.73,.96l-9.35,6.08c-.68,.45-1.14,.94-1.36,1.47-.23,.52-.26,1.01-.1,1.47,.16,.46,.47,.83,.92,1.13,.45,.3,1,.44,1.64,.44,.23,0,.41,.06,.55,.17,.14,.11,.25,.42,.34,.92,.09,.5,.16,1.27,.21,2.32,.04,1.05,.07,2.5,.07,4.37v6.96c5.18,1.94,9.06,2.31,11.95,1.67Z"/><path class="f" d="M137.28,82.04c.5,1.21,1.18,2.18,2.05,2.94,.86,.75,1.84,1.3,2.94,1.64,1.09,.34,2.21,.51,3.34,.51s2.17-.13,3.24-.38c1.07-.25,2.05-.59,2.94-1.02,.89-.43,1.66-.92,2.32-1.47,.66-.55,1.1-1.11,1.33-1.71,.32-.73,.33-1.41,.03-2.05-.3-.64-.76-.96-1.4-.96-.36,0-.71,.09-1.02,.27-.73,.36-1.34,.55-1.84,.55-1.14,0-1.88-.75-2.22-2.25-.34-1.5-.51-3.55-.51-6.14v-.31c-2.89,.65-6.76,.27-11.95-1.67v7.58c0,1.77,.25,3.27,.75,4.47Z"/></g></g></g></g></svg>