<?xml version="1.0" encoding="iso-8859-1"?>
<!-- Uploaded to: SVG Repo, www.svgrepo.com, Generator: SVG Repo Mixer Tools -->
<svg fill="white" height="800px" width="800px" version="1.1" id="Capa_1" xmlns="http://www.w3.org/2000/svg" xmlns:xlink="http://www.w3.org/1999/xlink" 
	 viewBox="0 0 58 58" xml:space="preserve">
<g>
	<g>
		<path d="M55.966,24.742C55.75,17.273,53.609,11.5,49.562,7.608C44.395,2.642,37.995,2.499,37.082,2.5c-0.05,0-0.072,0-0.088,0
			c-0.005,0-0.019,0-0.022,0c-0.072,0.002-0.14,0.026-0.209,0.043c-0.042,0.01-0.087,0.01-0.128,0.026
			c-0.107,0.042-0.206,0.102-0.293,0.178l-6.841,5.985c-0.071,0.062-0.151,0.109-0.235,0.14c-0.028,0.011-0.06,0.009-0.09,0.016
			c-0.111,0.027-0.224,0.027-0.336,0.003c-0.035-0.008-0.072-0.007-0.105-0.019c-0.085-0.031-0.165-0.078-0.237-0.141l-6.84-5.984
			c-0.087-0.076-0.187-0.136-0.293-0.178c-0.04-0.016-0.085-0.016-0.128-0.026C21.168,2.526,21.1,2.502,21.028,2.5h-0.002
			c-0.02,0-0.16-0.002-0.392,0.005c-0.024,0.001-0.058,0.003-0.084,0.004c-0.088,0.003-0.175,0.006-0.285,0.013
			c-1.97,0.108-7.357,0.79-11.826,5.086C4.391,11.5,2.25,17.273,2.034,24.742C0.844,25.225,0,26.39,0,27.752v0.496
			C0,30.041,1.459,31.5,3.252,31.5H14v18c0,0.04,0.002,0.079,0.007,0.119c0.001,0.008,0.004,0.023,0.005,0.035
			c0.089,0.635,0.992,4.438,9.742,5.543c0.006,0.001,0.01,0.002,0.016,0.002c0.006,0.001,0.011,0.001,0.017,0.002
			C25.286,55.389,27.007,55.5,29,55.5c0.716,0,1.39-0.017,2.04-0.044c0.001,0,0.001,0,0.002,0h0.001
			c1.157-0.048,2.21-0.135,3.17-0.255c0.005-0.001,0.011-0.001,0.017-0.002c0.006-0.001,0.01-0.002,0.016-0.002
			c8.75-1.105,9.654-4.908,9.742-5.543c0.002-0.011,0.004-0.027,0.005-0.035C43.998,49.579,44,49.54,44,49.5v-18h10.748
			c1.793,0,3.252-1.459,3.252-3.252v-0.496C58,26.39,57.156,25.225,55.966,24.742z M8,11.462c0.602-0.818,1.271-1.571,2-2.255V24.5
			H8V11.462z M6,14.754V24.5H4.023C4.158,20.752,4.833,17.508,6,14.754z M14,29.5H3.252C2.562,29.5,2,28.939,2,28.248v-0.496
			c0-0.69,0.562-1.252,1.252-1.252H7h4h3V29.5z M14,24.5h-2V7.317c0.667-0.443,1.339-0.819,2-1.134V24.5z M18,51.464
			c-1.614-0.942-1.951-1.893-2-2.058V30.5v-5v-13c0,0.302,0.137,0.588,0.371,0.778c0.107,0.086,0.232,0.14,0.362,0.176
			c0.036,0.01,0.07,0.012,0.106,0.018C16.893,13.482,16.945,13.5,17,13.5c0.07,0,0.141-0.008,0.21-0.022l0.79-0.17V51.464z
			 M22,52.886c-0.758-0.158-1.42-0.34-2-0.535V12.878l2-0.43V52.886z M25.999,53.403c-0.689-0.046-1.349-0.108-1.967-0.187
			c-0.009-0.001-0.018-0.002-0.026-0.003c-0.002,0-0.004-0.001-0.006-0.001V12.018l2-0.43L25.999,53.403z M24.66,9.831l-1.87,0.402
			c-0.001,0-0.001,0.001-0.002,0.001l-3.998,0.86l0,0L18,11.263V4.846c0.107-0.022,0.218-0.047,0.321-0.066
			c0.034-0.006,0.066-0.012,0.099-0.018c0.538-0.099,1.009-0.159,1.399-0.198c0.081-0.008,0.163-0.016,0.236-0.022
			c0.076-0.006,0.151-0.012,0.218-0.017c0.133-0.009,0.262-0.016,0.358-0.02l5.68,4.97L24.66,9.831z M29,53.5
			c-0.343,0-0.675-0.004-1-0.01V11.159l1-0.215l1,0.215l0.001,42.331C29.676,53.497,29.343,53.5,29,53.5z M34,53.212
			c-0.01,0.001-0.021,0.003-0.032,0.004c-0.619,0.078-1.277,0.141-1.968,0.187V11.589l2,0.43V53.212z M38,52.35
			c-0.579,0.195-1.243,0.376-2,0.535V12.448l2,0.43V52.35z M39.21,11.093l-3.998-0.86c-0.001,0-0.001-0.001-0.002-0.001l-1.97-0.423
			l-1.551-0.334l5.68-4.97c0.097,0.004,0.225,0.011,0.358,0.02c0.067,0.005,0.142,0.011,0.218,0.017
			c0.073,0.006,0.155,0.014,0.236,0.022c0.39,0.038,0.861,0.099,1.399,0.198c0.033,0.006,0.065,0.012,0.099,0.018
			C39.782,4.799,39.893,4.824,40,4.846v6.417L39.21,11.093L39.21,11.093z M42,25.5v5v18.894c-0.015,0.051-0.049,0.145-0.11,0.269
			c-0.004,0.007-0.006,0.013-0.01,0.021c-0.029,0.057-0.067,0.122-0.11,0.191c-0.008,0.013-0.015,0.025-0.023,0.037
			c-0.044,0.069-0.097,0.143-0.157,0.221c-0.013,0.016-0.025,0.033-0.038,0.049c-0.063,0.079-0.135,0.162-0.216,0.248
			c-0.016,0.018-0.033,0.035-0.051,0.053c-0.086,0.089-0.182,0.18-0.29,0.274c-0.018,0.016-0.037,0.032-0.056,0.047
			c-0.115,0.098-0.242,0.198-0.383,0.299c-0.016,0.011-0.033,0.023-0.049,0.034c-0.152,0.106-0.316,0.214-0.499,0.321
			c-0.003,0.002-0.006,0.003-0.008,0.005V13.308l0.79,0.17C40.859,13.492,40.93,13.5,41,13.5c0.055,0,0.107-0.018,0.161-0.027
			c0.036-0.006,0.07-0.008,0.105-0.018c0.13-0.036,0.255-0.09,0.363-0.176C41.863,13.088,42,12.802,42,12.5V25.5z M52,14.754
			c1.167,2.754,1.842,5.998,1.977,9.747H52V14.754z M48,9.207c0.729,0.684,1.398,1.437,2,2.255V24.5h-2V9.207z M44,6.183
			c0.661,0.314,1.333,0.691,2,1.134V24.5h-2V6.183z M56,28.248c0,0.69-0.562,1.252-1.252,1.252H44v-3h3h4h3.748
			c0.69,0,1.252,0.562,1.252,1.252V28.248z"/>
	</g>
</g>
</svg>